<svg xmlns="http://www.w3.org/2000/svg" id="Layer_2" viewBox="0 0 2380.01 1370.7"><defs><style>.cls-1{fill:#656d78;stroke-width:0px;}</style></defs><g id="Layer_1-2"><path class="cls-1" d="M2206.08,40c35.78,0,69.41,13.93,94.71,39.23,25.3,25.3,39.23,58.93,39.23,94.71v1022.84c0,35.78-13.93,69.41-39.23,94.71-25.3,25.3-58.93,39.23-94.71,39.23H173.93c-35.78,0-69.41-13.93-94.71-39.23-25.3-25.3-39.23-58.93-39.23-94.71V173.93c0-35.78,13.93-69.41,39.23-94.71,25.3-25.3,58.93-39.23,94.71-39.23h2032.14M2206.08,0H173.93C77.87,0,0,77.87,0,173.93v1022.84c0,96.06,77.87,173.93,173.93,173.93h2032.14c96.06,0,173.93-77.87,173.93-173.93V173.93c0-96.06-77.87-173.93-173.93-173.93h0Z"></path><path class="cls-1" d="M1856.42,842.04c-21.16,0-42.32,0-63.49,0-4.51,0-5-.54-4.09-4.9,5.49-26.14,4.96-52.53,3.03-78.93-.97-13.31-3.03-26.55-5.98-39.57-3.65-16.16-8.34-32.04-14.23-47.57-4.93-12.98-10.87-25.47-17.11-37.84-1.13-2.24-.85-2.95,1.72-3.69,13.58-3.92,27.05-8.17,40.6-12.18,13.7-4.05,27.48-7.85,41.17-11.95,11.93-3.57,23.81-7.31,35.64-11.21,2.12-.7,3.08-.95,4.28,1.33,10.05,18.93,18.75,38.47,25.76,58.69,4.86,14.02,8.75,28.35,12.02,42.88,3.69,16.38,6.05,32.92,8.38,49.5,3.98,28.31,1.56,56.74,2.02,85.12.05,2.94-1.21,5.53-1.62,8.34-.35,2.4-2.34,2.03-4.01,2.09-21.37.73-42.73.39-64.1-.11Z"></path><path class="cls-1" d="M1826.17,590.13c-.54.19-1.09.37-1.63.56-1.37-.22-2.45.44-3.49,1.18-1.23-.17-2.41-.04-3.45.71-1.59-.26-2.83.44-3.96,1.45-4.37-.17-8.26,1.83-12.34,2.86-9.44,2.39-18.78,5.22-28.13,7.97-8.01,2.35-16.3,3.84-23.98,7.27-2.69,1.2-4.25.5-5.9-2.06-22.57-35.1-50.91-64.91-83.4-90.97-24.28-19.48-50.15-36.51-77.57-51.21-1.05-.56-2.03-1.03-2.03-2.43,0-1.38.94-1.77,1.98-2.4,17.18-10.41,34.31-20.89,51.44-31.36,10.61-6.49,21.46-12.59,31.73-19.62,2.02-1.38,4.48-1.16,6.53-.24,31.56,14.22,61.54,31.24,89.15,52.15,27.61,20.91,52.89,44.35,74.91,71.17.35.42.88.69,1.33,1.03.38,1.29.83,2.52,2.39,2.81.3.51.59,1.02.89,1.53.1,1.04.8,1.54,1.68,1.88,1,1.84,2.18,3.54,3.83,4.87-.17,1.03.26,1.67,1.26,1.94l.15-.16s-.16.15-.16.15c5.74,8.46,11.44,16.95,17.28,25.35,1.05,1.51,1.83,2.81.91,4.58-.56.09-1.12.19-1.69.28-1.37.52-2.75,1.03-4.12,1.55-1.27-.04-2.51.03-3.61.75-1.63-.03-2.97.75-4.31,1.54-1.16-.06-2.31-.1-3.34.6-1.64-.2-2.87.66-4.07,1.59-.66.08-1.32.16-1.98.24-2.6-.4-4.6,1.19-6.83,2.04-1.26-.23-2.45-.14-3.44.8-.99-.04-1.9.13-2.52,1.01-.57.1-1.14.21-1.7.31-.66-.32-1.25-.15-1.78.29Z"></path><path class="cls-1" d="M1338.28,504.55c-3.7,5.04-8.57,8.95-12.96,13.32-48.11,47.89-96.44,95.54-144.38,143.59-33.28,33.35-66.21,67.04-98.97,100.91-21.55,22.28-43.16,44.54-62.79,68.6-.9,1.1-2.12,2.09-2.61,3.35-2.45,6.37-7.45,6.84-13.37,6.76-33.96-.45-67.93-.65-101.9-.88-1.14,0-2.19-.08-3.7-.68,8.64-6.83,17.02-13.53,25.48-20.14,37.64-29.38,75.23-58.82,112.97-88.07,47.63-36.92,95.41-73.64,143.08-110.51,32.83-25.39,65.85-50.52,99.2-75.22,18.39-13.62,36.53-27.63,56.11-39.57,1.16-.71,2.15-2.31,3.94-1.39l-.11-.07Z"></path><path class="cls-1" d="M1169.36,985.83c-20.39,0-40.77.09-61.16-.04-10.32-.06-20.03-2.44-28.28-9.06-7.4-5.94-11.44-13.48-11.38-23.2.13-19.73.11-39.46,0-59.18-.07-11.15,5.21-19.24,14.02-25.35,7.46-5.17,15.95-7.5,24.93-7.52,41.34-.11,82.69-.15,124.03-.03,9.43.03,18.25,2.71,25.91,8.45,8.23,6.17,12.8,14.2,12.74,24.74-.11,18.8-.48,37.62.09,56.41.6,19.9-12.85,29.67-27.05,33.27-4.71,1.19-9.54,1.52-14.39,1.52-19.82,0-39.63,0-59.45,0ZM1169.34,894.48c-16.54,0-33.08-.16-49.61.06-10.75.14-16.53,5.93-16.89,16.69-.27,8.24-.26,16.51.03,24.75.4,11.18,5.55,16.55,16.79,16.63,33.08.23,66.15.23,99.23,0,11.39-.08,17.43-6.77,17.49-18.11.04-7.12.02-14.25,0-21.37-.03-11.94-6.02-18.45-17.86-18.62-16.39-.23-32.79-.06-49.18-.05Z"></path><path class="cls-1" d="M1641.46,399.87c-16.15,9.38-31.73,18.41-47.3,27.47-13.26,7.71-26.53,15.41-39.73,23.23-1.31.78-2.06.75-3.4.22-49.19-19.32-99.35-35.52-151.2-46.13-14.9-3.05-29.99-4.89-45.16-6.11-.78-.06-1.81.51-2.25-.56-.42-1.04.6-1.48,1.16-2.04,15.51-15.7,31.06-31.35,46.51-47.1,1.8-1.84,3.75-1.75,5.86-1.6,17.59,1.26,35.15,2.91,52.62,5.22,26.5,3.5,52.86,7.84,78.97,13.66,35.52,7.91,70.23,18.24,103.92,33.75Z"></path><path class="cls-1" d="M1405.67,946.17c8.42-11.03,16.72-21.86,24.97-32.72,12.31-16.21,24.61-32.42,36.82-48.69,1.33-1.78,2.69-2.59,4.94-2.58,13.83.08,27.67.11,41.5-.02,2.69-.02,3.31.85,3.31,3.41-.07,39.05-.07,78.09,0,117.14,0,2.53-.48,3.45-3.24,3.39-8.98-.19-17.97-.21-26.95,0-3.08.08-3.41-1.16-3.41-3.73.08-27.79.07-55.58.08-83.37,0-.41,0-.83,0-1.21-1.01-.47-1.3.29-1.7.83-21.35,28.29-42.71,56.57-64.01,84.9-1.32,1.75-2.63,2.63-4.91,2.55-4.99-.18-9.99-.18-14.97,0-2.28.08-3.63-.77-4.95-2.52-21.12-28.1-42.36-56.1-63.37-84.28-2.42-3.24-4.84-4.48-8.82-4.32-7.97.32-15.97.02-23.96.14-2.35.03-3.23-.6-3.18-3.1.15-8.83.16-17.67,0-26.5-.05-2.74.96-3.34,3.47-3.32,13.83.1,27.67.14,41.5-.03,2.81-.03,4.02,1.5,5.42,3.34,20.4,26.82,40.83,53.62,61.45,80.69Z"></path><path class="cls-1" d="M727.48,987.42c-19.68,0-39.37.13-59.05-.04-13.32-.11-25.29-3.81-33.87-14.82-3.85-4.95-5.81-10.61-5.79-17.01.07-30.21.08-60.43-.04-90.64-.01-3.06.86-3.8,3.81-3.73,8.55.19,17.12.25,25.66-.04,3.56-.12,4.1,1.18,4.08,4.33-.12,23.09-.07,46.17-.06,69.26,0,13.14,5.56,18.86,18.65,18.89,31.09.07,62.19.07,93.28.03,14.07-.02,19.66-5.5,19.75-19.7.14-22.77.14-45.55-.06-68.32-.03-3.67.94-4.54,4.44-4.45,8.55.23,17.11.13,25.67.02,2.38-.03,3.47.27,3.46,3.15-.13,30.78.01,61.57-.15,92.35-.07,12.75-9.77,24.01-23.92,28.42-5.04,1.57-10.22,2.34-15.53,2.33-20.11-.05-40.22-.02-60.33-.02Z"></path><path class="cls-1" d="M1950.4,986.04c-12.51,0-24.19-.04-35.86.04-1.9.01-2.75-1.1-3.78-2.3-11.28-13.2-22.67-26.32-33.83-39.62-2.49-2.97-4.98-4.28-8.98-4.19-12.11.27-24.22.13-36.33-.11-2.92-.06-4.68.92-6.43,3.09-10.71,13.3-21.57,26.49-32.31,39.77-1.34,1.66-2.62,2.65-4.94,2.6-10.12-.22-20.24-.21-30.36-.33-.93-.01-2.17.55-2.73-.57-.58-1.15.7-1.72,1.25-2.45,13.84-18.26,27.66-36.55,41.64-54.7,1.77-2.29,1.6-3.53-.15-5.69-14.7-18.13-29.25-36.38-43.84-54.6-.86-1.08-1.65-2.21-2.46-3.29,1.06-1.32,2.28-.77,3.32-.78,9.98-.09,19.95-.01,29.93-.24,2.6-.06,4.19.86,5.78,2.74,11.28,13.4,22.7,26.69,33.92,40.14,1.91,2.29,3.77,3.35,6.81,3.31,12.97-.16,25.95-.11,38.93,0,2.06.02,3.33-.54,4.66-2.15,11.34-13.72,22.84-27.3,34.15-41.05,1.99-2.42,3.99-3.48,7.2-3.41,11.05.22,22.11.08,34.13.08-4.37,5.61-8.24,10.6-12.14,15.56-11.61,14.78-23.18,29.58-34.9,44.27-1.57,1.97-1.48,3.04.07,4.96,15.64,19.36,31.17,38.82,47.25,58.91Z"></path><path class="cls-1" d="M949.29,862.25c31.65,0,63.3.06,94.95-.08,3.67-.02,4.94.69,4.75,4.65-.37,7.96-.38,15.95,0,23.91.2,4.05-1.25,4.62-4.82,4.59-24.38-.15-48.76.01-73.14-.17-3.62-.03-4.36.92-4.34,4.42.16,27.35.03,54.71.17,82.06.02,3.36-.82,4.39-4.25,4.29-8.54-.27-17.11-.28-25.65-.06-3.24.09-4.09-.85-4.08-4.04.12-27.64.02-55.28.14-82.92.01-2.95-.65-3.74-3.65-3.72-24.95.13-49.9,0-74.85.16-3.48.02-4.24-1.02-4.15-4.28.23-8.11.25-16.25,0-24.36-.11-3.49.76-4.52,4.4-4.5,31.51.15,63.02.09,94.53.09v-.02Z"></path><path class="cls-1" d="M1647.39,909.65c-2.91-4.02-5.68-7.76-8.35-11.58-1.08-1.55-2.55-1.53-4.15-1.54-10.4-.07-20.79-.15-31.19-.29-1.08-.01-2.5.64-3.19-.4-.78-1.18.62-2.02,1.2-2.9,5.92-9.04,11.92-18.03,17.8-27.09,1.08-1.66,2.1-2.71,4.33-2.66,9.52.2,19.05.27,28.57.23,2.22,0,3.28,1.06,4.38,2.71,22.58,33.84,45.21,67.65,67.83,101.47,4.23,6.33,8.51,12.63,13.01,19.31-12.55,0-24.47-.03-36.39.03-2.22.01-2.81-1.69-3.74-3.02-9.14-13.06-18.28-26.11-27.3-39.25-1.6-2.33-3.3-3.31-6.22-3.32-16.95-.08-33.9-.31-50.84-.7-3.19-.07-5.13.83-6.97,3.5-9.01,12.98-18.28,25.77-27.37,38.69-1.47,2.09-3.08,2.8-5.67,2.73-10.11-.26-20.23-.22-30.35-.32-.82,0-1.97.08-2.37-.39-.85-.99.32-1.77.84-2.54,15.95-23.56,31.93-47.1,47.81-70.71,1.3-1.94,2.85-1.98,4.73-1.98,17.67.02,35.35.01,53.6.01Z"></path><path class="cls-1" d="M526.56,908.81c-2.97-4.09-5.68-7.7-8.23-11.42-1.23-1.8-2.98-1.44-4.61-1.44-11.23-.04-22.45-.02-33.42-.02-1-1.87.2-2.61.78-3.44,6.07-8.77,12.26-17.46,18.26-26.27,1.35-1.99,2.78-2.85,5.22-2.79,8.98.22,17.96.34,26.94.24,2.66-.03,4.14,1.04,5.5,3.11,23.95,36.35,47.94,72.67,71.92,108.99,1.87,2.83,3.69,5.68,5.47,8.41-.72,1.5-1.86.94-2.74.94-10.41.04-20.82-.05-31.23.1-2.43.03-3.83-.74-5.19-2.75-8.94-13.19-18.09-26.24-26.99-39.45-1.64-2.43-3.38-3.18-6.21-3.16-16.4.1-32.8.19-49.19-.17-4.59-.1-7.19,1.57-9.73,5.09-9.16,12.69-18.63,25.16-27.94,37.75-1.13,1.53-2.09,2.76-4.36,2.73-11.68-.13-23.37-.06-34.94-.06-.81-1.12-.07-1.73.4-2.4,16.86-23.44,33.78-46.85,50.52-70.37,1.97-2.77,4.03-3.74,7.36-3.7,17.22.16,34.45.08,52.41.08Z"></path><path class="cls-1" d="M1161.6,396.46c5.12-10.01,10.01-19.59,14.92-29.16.71-1.39,1.76-2.68,2.16-4.15,2.22-8.22,8.02-10.51,15.95-11.6,51.03-6.97,102.26-9.79,153.72-8.29,8.5.25,17.08-.04,25.62,1.47-.2,1.75-1.57,2.66-2.58,3.74-14.73,15.64-29.55,31.2-44.2,46.91-1.9,2.04-3.88,1.51-5.83,1.23-16.35-2.31-32.84-2.94-49.3-3.57-33.28-1.28-66.55-1.1-99.72,2.34-1.69.17-3.36.55-5.02.93-1.68.37-3.34.66-5.72.15Z"></path><path class="cls-1" d="M1009.73,419.58c2.28-9.42,4.51-18.71,6.8-28,.43-1.76,1.87-2.12,3.5-2.59,36.44-10.55,73-20.65,110.09-28.71,5.26-1.14,10.6-1.91,15.93-2.64,2.24-.3,4.55-.05,7.07-.05-.36,2.69-2.09,4.77-3.32,7.01-5.55,10.07-11.33,20.01-16.78,30.13-1.44,2.67-3.19,3.93-6.13,4.28-14.66,1.77-29.35,3.32-43.93,5.59-24.56,3.81-49.27,6.97-73.22,14.98Z"></path><path class="cls-1" d="M1293.88,947.34c0-11.68.07-23.36-.05-35.03-.03-2.77.44-4.06,3.68-3.97,8.83.22,17.67.14,26.5,0,2.57-.04,3.44.71,3.43,3.37-.09,23.8-.06,47.61,0,71.42,0,2.13-.51,2.99-2.84,2.96-9.26-.12-18.53-.14-27.79,0-2.64.04-2.98-1.04-2.96-3.28.09-11.82.04-23.64.04-35.46Z"></path><path class="cls-1" d="M995.5,396.34c-1.59,7.73-3.24,15.45-4.72,23.2-.49,2.57-2.04,3.24-4.37,3.76-28.82,6.34-57.73,12.28-86.09,20.53-2.84.83-5.62,1.88-8.76,2.94.58-5.99,1.14-11.97,1.77-17.94.14-1.37,1.39-1.64,2.44-2.05,31.39-12.44,63.06-24.03,96.33-30.57,1.12-.22,2.23-.46,3.4.13Z"></path><path class="cls-1" d="M1916.89,477.09c1.38,17.66-15.62,35.8-36.11,35.43-15.51-.28-35.13-13.57-34.97-35.9.14-19.63,16.04-35.13,35.95-35.4,18.8-.25,36.55,16.81,35.13,35.88ZM1908.34,476.96c0-14.74-12.2-26.99-26.74-26.86-15,.13-26.69,11.84-26.65,26.72.04,15.14,11.89,26.98,26.89,26.88,14.39-.1,26.5-12.32,26.49-26.74Z"></path><path class="cls-1" d="M871.8,445.78c0,1.42-.17,2.87.04,4.26.36,2.45-.83,3.36-2.95,4.25-22.55,9.44-45.07,18.92-67.51,28.62-3.68,1.59-4.74.74-5.59-2.85-1.63-6.91-1.78-6.79,4.84-9.94,21.94-10.44,43.85-20.93,65.76-31.41,4.72-2.26,4.7-2.29,5.04,2.84.09,1.41.19,2.82.28,4.23h.09Z"></path><path class="cls-1" d="M619.32,575.52c9.77-7.99,20.43-14.74,30.91-21.72,37.29-24.79,75.61-47.78,116.73-65.8.39-.17.79-.54,1.15-.5,1.64.16,3.14-3.47,4.79-.35,2.29,4.33,1.66,6.26-2.07,8.04-47.75,22.74-94.99,46.46-140.17,74.05-3.62,2.21-7.24,4.45-10.86,6.67-.16-.13-.33-.25-.49-.39Z"></path><path class="cls-1" d="M1869.11,476.73c0-4.39.08-8.78-.02-13.16-.08-3.12,1.37-4.36,4.38-4.31,4.55.08,9.11-.15,13.65.11,5.22.3,9.17,2.81,11.01,7.89,1.8,4.96,1.1,9.63-2.94,13.17-2.09,1.83-2.5,3.39-1.18,5.66.42.72.68,1.55.93,2.35.63,1.96,2.92,4.18-.28,5.76-2.78,1.37-6.57-.22-7.74-2.93-.67-1.55-1.47-3.09-1.81-4.71-.7-3.32-3.19-2.63-5.31-2.51-2.74.16-1.16,2.36-1.42,3.62-.56,2.69,1.56,6.7-3.91,6.68-4.73-.02-5.34-.45-5.36-5.32-.01-4.1,0-8.2,0-12.31ZM1882.96,474.86c1.31,0,2.3-.04,3.29,0,2.19.1,3.68-.91,3.76-3.07.09-2.47-1.54-3.4-3.89-3.32-1.41.05-2.84.1-4.23-.07-2.95-.37-3.68.77-3.67,3.72.01,4.61,3.34,1.96,4.74,2.74Z"></path></g></svg>