<svg xmlns="http://www.w3.org/2000/svg" id="Layer_2" viewBox="0 0 2380.01 1370.7"><defs><style>.cls-1{fill:#656d78;stroke-width:0px;}</style></defs><g id="Layer_1-2"><path class="cls-1" d="M2206.08,40c35.78,0,69.41,13.93,94.71,39.23s39.23,58.93,39.23,94.71v1022.84c0,35.77-13.93,69.41-39.23,94.71-25.3,25.3-58.93,39.23-94.71,39.23H173.93c-35.78,0-69.41-13.93-94.71-39.23-25.3-25.3-39.23-58.93-39.23-94.71V173.93c0-35.78,13.93-69.41,39.23-94.71,25.3-25.3,58.93-39.23,94.71-39.23h2032.14M2206.08,0H173.93C77.87,0,0,77.87,0,173.93v1022.84c0,96.06,77.87,173.93,173.93,173.93h2032.14c96.06,0,173.93-77.87,173.93-173.93V173.93c0-96.06-77.87-173.93-173.93-173.93h0Z"></path><path class="cls-1" d="M660.17,329.58c0-30.34.14-60.69-.13-91.03-.05-5.52,1.52-6.88,6.92-6.85,40.37.23,80.74-.02,121.11.2,13.71.07,27.16,2.42,39.68,8.36,17.15,8.13,26.14,21.9,27.07,40.81.84,16.98-5.33,30.51-20.43,39.12-7.99,4.55-3.17,6.66,1.31,9.21,31.77,18.1,28.83,59,11.84,76.41-12.76,13.07-29.22,18.05-46.62,19.76-34.14,3.34-68.42.84-102.64,1.47-10.58.2-21.17-.26-31.73.15-5.25.21-6.53-1.49-6.49-6.56.22-30.34.11-60.69.11-91.03ZM752.91,377.45c6.95,0,13.89,0,20.84,0,.83,0,1.67-.05,2.5-.1,11.47-.7,18.5-6.88,18.48-16.23-.02-8.93-6.68-14.91-18.17-15.47-9.15-.45-18.34-.38-27.5-.13-7.98.22-18.89-3.58-23.13,1.53-4.02,4.83-.82,15.39-1.47,23.37-.51,6.22,2.07,7.5,7.62,7.15,6.92-.44,13.89-.11,20.83-.11ZM753.44,310.08c7.79,0,15.59,0,23.38-.01.83,0,1.66-.16,2.48-.31,8.72-1.61,14.23-7.09,14.13-14.01-.11-7.38-6.04-13.33-15.01-13.89-10.82-.67-21.68-.73-32.52-.78-22.79-.1-22.69-.04-21.56,23.29.2,4.18,1.21,5.98,5.71,5.81,7.78-.31,15.59-.09,23.38-.1Z"></path><path class="cls-1" d="M1512.72,906.07c-20.89,0-40.28-.1-59.66.08-4.07.04-5.03-2.7-6.43-5.37-6.97-13.27-14.04-26.48-20.84-39.83-1.68-3.31-3.46-5.15-7.51-5.07-12.52.24-25.04.24-37.56,0-4.33-.08-5.79,1.27-5.71,5.66.24,12.79-.1,25.6.18,38.39.1,4.72-1.38,6.29-6.12,6.23-17.53-.21-35.06-.21-52.59,0-4.73.06-6.13-1.5-6.12-6.22.14-61.21.15-122.42-.01-183.62-.01-5.08,2.03-5.98,6.41-5.92,39.22.49,78.45-.78,117.66.77,8.38.33,16.58,1.86,24.58,4.25,28.12,8.37,44.52,29.55,46.68,59.34,1.85,25.54-3.69,48.15-24.7,64.79-3.91,3.1-1.23,5.42.04,7.79,10.2,19.09,20.55,38.1,31.72,58.73ZM1400.82,806.86c6.39,0,12.78.12,19.17-.02,13.59-.31,21.85-8.26,21.91-20.92.06-12.28-7.77-20.58-20.96-21.09-13.6-.52-27.23-.08-40.84-.34-4.14-.08-5.16,1.49-5.09,5.33.2,10.55.29,21.12-.03,31.67-.14,4.62,1.68,5.63,5.82,5.46,6.66-.28,13.33-.07,20-.08Z"></path><path class="cls-1" d="M660.17,1048.05c0-30.32.13-60.65-.12-90.97-.05-5.39,1.33-6.96,6.84-6.92,33.11.26,66.22.03,99.33.19,12.28.06,24.4,1.95,36.19,5.36,36.71,10.64,58.63,38.18,61.46,77.33,1.04,14.44,1.04,28.92-2.02,43.19-8.03,37.48-32.16,58.33-68.75,66.03-11.17,2.35-22.51,3.35-33.96,3.31-30.6-.11-61.21-.21-91.81.11-5.99.06-7.33-1.77-7.28-7.47.28-30.04.13-60.09.13-90.14ZM725.08,1047.15c0,12.77.1,25.55-.06,38.32-.05,3.93.51,6.23,5.32,6.02,9.69-.43,19.41-.46,29.12-.47,25.39-.01,39.7-14.47,40.75-42.3,1.05-27.85-14.48-43.95-42.29-44.06-8.33-.03-16.68.36-24.99-.13-5.98-.35-8.35,1.05-8.02,7.64.59,11.63.16,23.32.17,34.98Z"></path><path class="cls-1" d="M660.17,568.49c0-30.33.05-60.67-.05-91-.01-4.06.1-6.71,5.56-6.58,38.09.91,76.28-1.95,114.28,1.66,29.68,2.82,55.72,13.46,71.7,40.77,22.02,37.63,15.85,99.27-12.7,127.13-18.59,18.15-42.21,24.65-67.08,25.45-35.31,1.14-70.68.32-106.02.74-6.18.07-5.74-3.1-5.73-7.18.06-30.33.03-60.67.03-91ZM725.07,568.52c0,12.78.14,25.56-.08,38.34-.07,4.29,1.22,5.89,5.66,5.73,8.33-.3,16.67-.06,25.01-.09,28.56-.12,42.56-13.19,44.48-41.5,1.89-27.86-14.03-45.14-41.84-45.37-8.61-.07-17.25.33-25.84-.13-5.64-.3-7.79,1.08-7.53,7.18.5,11.93.15,23.89.15,35.84Z"></path><path class="cls-1" d="M1699.53,329.35c0,29.79-.26,59.58.19,89.36.11,7.19-2.08,8.72-8.84,8.51-16.41-.51-32.85-.36-49.27-.05-5.15.1-6.67-1.49-6.6-6.59.26-18.93-.08-37.86.22-56.79.09-5.4-1.38-7.13-6.93-7.04-20.32.32-40.65.33-60.97,0-5.57-.09-6.96,1.65-6.87,7.01.31,18.93-.05,37.86.23,56.79.07,5.1-1.35,6.72-6.56,6.63-16.98-.31-33.97-.27-50.94-.02-4.81.07-6.9-.83-6.88-6.3.18-60.97.19-121.93-.01-182.9-.02-5.55,2.06-6.31,6.83-6.24,16.7.25,33.41.34,50.11-.03,5.71-.13,7.62,1.27,7.49,7.28-.4,18.92.01,37.86-.25,56.79-.07,4.96,1.05,6.72,6.39,6.64,20.6-.32,41.2-.3,61.8-.02,5.16.07,6.63-1.44,6.55-6.56-.28-18.93.12-37.86-.25-56.79-.12-5.91,1.65-7.48,7.45-7.35,16.7.38,33.41.44,50.11-.02,6.13-.17,7.19,1.9,7.14,7.5-.27,30.06-.13,60.13-.13,90.19Z"></path><path class="cls-1" d="M1104.9,808.43c0-30.34.14-60.68-.13-91.02-.05-5.48,1.46-7.11,6.96-7.09,54,.18,108,.18,162,0,5.17-.02,6.65,1.44,6.51,6.57-.36,13.07-.4,26.17.01,39.24.18,5.59-1.64,6.93-7.02,6.89-32.01-.24-64.02.07-96.03-.27-6.28-.07-7.93,1.58-7.8,7.82.36,16.22.04,16.22,15.93,16.22,27.28,0,54.57.34,81.83-.22,7.76-.16,9.48,2.28,8.99,9.37-.6,8.59-.63,17.28.01,25.86.53,7.02-2.36,8.12-8.55,8.06-29.78-.29-59.57.07-89.35-.28-6.6-.08-9.16,1.07-8.9,8.43.58,16.09.14,16.11,16.18,16.11,29.23,0,58.46.12,87.68-.11,5.33-.04,7.22,1.23,7.03,6.91-.45,13.07-.35,26.16-.03,39.24.12,4.88-1.57,6.04-6.18,6.03-54.28-.13-108.56-.16-162.84.02-5.33.02-6.45-1.83-6.42-6.77.2-30.34.1-60.68.1-91.02Z"></path><path class="cls-1" d="M660.16,808.27c0-30.07.11-60.14-.11-90.22-.04-5.34.62-7.81,7-7.78,53.74.27,107.49.25,161.23.02,6.16-.03,7.37,2.16,7.2,7.7-.36,12.52-.41,25.07.02,37.58.2,5.87-1.57,7.51-7.44,7.46-31.46-.28-62.93.09-94.4-.3-7.12-.09-9.61,1.36-9.28,9.01.65,15.03.16,15.05,15.58,15.05,27.85,0,55.69.15,83.54-.13,5.71-.06,7.85,1.3,7.53,7.32-.5,9.44-.46,18.94-.01,28.39.27,5.76-1.4,7.56-7.35,7.5-30.35-.3-60.71.08-91.05-.3-6.73-.08-8.32,1.97-8.18,8.37.36,16.17.05,16.18,16.22,16.18,28.96,0,57.92.17,86.88-.13,6.08-.06,8.28,1.31,7.99,7.8-.55,12.51-.36,25.06-.06,37.58.12,4.86-.92,6.86-6.35,6.85-54.3-.19-108.6-.2-162.9.02-5.68.02-6.18-2.26-6.16-6.91.17-30.35.09-60.7.09-91.05Z"></path><path class="cls-1" d="M873.16,329.58c0-29.79.14-59.59-.12-89.38-.05-6.03.77-8.62,7.92-8.57,53.18.35,106.37.31,159.55.03,6.29-.03,8.02,1.56,7.75,7.8-.53,12.23-.6,24.52.02,36.74.34,6.68-2.14,7.6-8.01,7.55-31.74-.27-63.49.08-95.23-.3-6.43-.08-7.79,1.77-7.66,7.86.36,16.47.06,16.48,16.52,16.48,27.29,0,54.58.26,81.86-.17,7.18-.11,9.03,2.16,8.58,8.93-.57,8.59-.66,17.29.02,25.87.58,7.33-2.32,8.54-8.94,8.47-30.07-.35-60.15.04-90.22-.31-6.25-.07-7.98,1.5-7.84,7.81.36,16.85.03,16.86,17,16.86,28.96,0,57.92.14,86.88-.12,5.41-.05,7.15,1.38,6.97,6.91-.4,12.8-.32,25.62-.03,38.42.11,4.92-1.04,6.74-6.41,6.72-54.02-.2-108.04-.23-162.06.03-6.11.03-6.68-2.51-6.66-7.41.14-30.07.07-60.14.07-90.21Z"></path><path class="cls-1" d="M1084.61,666.52c-21.15,0-41.16-.08-61.17.07-3.59.03-5.87-.84-6.47-4.59-.04-.27-.22-.51-.31-.77-2.32-6.49-2.83-15.24-7.41-18.89-5.4-4.3-14.43-1.28-21.87-1.36-17.8-.19-35.61.14-53.41-.19-5.09-.09-7.14,1.6-8.73,6.38-6.43,19.41-6.62,19.35-27.44,19.35-11.96,0-23.92,0-35.89,0-9.46,0-9.5-.03-6.34-8.7,15.29-41.95,30.61-83.9,45.92-125.85,6.66-18.24,13.46-36.43,19.87-54.75,1.63-4.65,3.83-6.39,8.94-6.34,25.59.29,51.19.23,76.78.04,4.42-.03,6.96.87,8.63,5.47,22.47,62.07,45.14,124.08,67.74,186.1.37,1.01.6,2.06,1.16,4.03ZM994.07,592.72c-6.64-20.01-13.01-39.17-19.35-58.35-1.27-3.85-4.49-2.39-7.03-2.64-2.73-.27-4.52.55-5.52,3.64-5.71,17.68-11.67,35.29-17.58,52.91-1.05,3.13-.4,4.53,3.26,4.5,14.99-.14,29.99-.06,46.21-.06Z"></path><path class="cls-1" d="M852.41,1145.51c7.37-20.15,14.41-39.39,21.43-58.64,15.78-43.26,31.6-86.51,47.23-129.82,1.69-4.69,3.64-7.01,9.28-6.93,25.59.37,51.2.24,76.79.09,4.29-.03,6.93.63,8.64,5.34,22.36,61.83,44.95,123.58,67.47,185.35.45,1.25.73,2.56,1.31,4.61-21.13,0-41.64-.09-62.14.08-3.71.03-4.62-2.01-5.59-4.79-2.36-6.76-2.2-16.05-7.72-19.61-6.12-3.95-15.14-1.12-22.89-1.19-17.25-.16-34.51.13-51.75-.16-5.25-.09-7.79,1.4-9.48,6.67-6.14,19.08-6.37,19.01-26.71,19.01-14.94,0-29.88,0-45.87,0ZM994.23,1072c-6.64-19.96-13.07-39.11-19.32-58.31-1.27-3.89-4.18-2.76-6.78-3.01-3.16-.31-5.01.68-6.09,4.06-5.61,17.44-11.48,34.79-17.29,52.16-1.09,3.25-.91,5.2,3.41,5.16,15-.15,29.99-.06,46.08-.06Z"></path><path class="cls-1" d="M1252.29,427.05c-8.9,0-17.82-.29-26.7.12-4.84.22-6.67-1.7-8.17-6.06-6.78-19.67-6.93-19.62-28.17-19.62-18.08,0-36.17.18-54.25-.12-5.04-.08-7.22,1.59-8.81,6.36-6.45,19.38-6.63,19.32-27.49,19.32-12.52,0-25.05-.26-37.55.11-6.22.18-7.57-1.02-5.24-7.33,21.15-57.24,41.95-114.61,62.92-171.92,5.9-16.12,5.99-16.09,23.48-16.09,21.98,0,43.96.1,65.93-.09,4.36-.04,6.82.71,8.52,5.41,22.08,61.03,44.34,122,66.84,182.88,2.46,6.66.36,7.36-5.44,7.12-8.61-.36-17.25-.09-25.87-.09ZM1195.2,353.54c-6.53-19.9-12.74-38.51-18.69-57.2-1.23-3.86-3.64-4.23-6.95-4.16-2.94.06-5.24.19-6.39,3.73-5.71,17.67-11.59,35.3-17.59,52.88-1.33,3.89-.2,4.84,3.59,4.81,14.98-.12,29.97-.05,46.03-.05Z"></path><path class="cls-1" d="M1453.59,312.3c-3.9,0-7.82-.32-11.68.06-11.5,1.13-19.56-.35-25.36-13.47-7.56-17.1-32.61-22.5-52.21-14.43-18.94,7.8-29.28,26.83-27.43,50.5,1.62,20.71,14.75,36.68,34.1,41.43,22.69,5.58,41.97-4.09,50.3-25.75,1.49-3.87,3.19-5.05,7.08-5.01,16.7.16,33.4.26,50.09-.04,5.41-.1,5.71,2.15,5.14,6.53-6.03,45.66-37.33,75.62-83.35,80.42-21.65,2.26-42.8,1.08-63.23-6.58-37.06-13.89-57.87-41.24-63.15-79.95-3.87-28.35.53-55.58,17.71-79.38,19.48-26.99,47.38-38.64,79.52-41.1,23.92-1.83,47.23,1.24,68.68,13.01,27.21,14.93,39.54,39.41,43.97,68.94.55,3.67-.52,4.96-4.28,4.88-8.62-.2-17.25-.06-25.88-.06Z"></path><path class="cls-1" d="M972.78,906.08c-13.08,0-26.17-.17-39.24.09-4.35.09-6.29-1.45-7.77-5.51-22.24-61.31-44.57-122.59-67.13-183.78-2.09-5.67-.72-6.57,4.66-6.5,17.53.23,35.07.3,52.6-.04,5.35-.1,7.73,1.6,9.47,6.71,13.85,40.72,28,81.34,42.09,121.99.94,2.7.77,6.21,5.22,6.31,4.5.09,4.43-3.38,5.38-6.13,13.98-40.39,28.04-80.74,41.8-121.21,1.88-5.53,4.21-7.9,10.47-7.72,17.24.5,34.51.29,51.77.1,5.18-.06,6.97.75,4.85,6.51-22.57,61.19-44.98,122.44-67.18,183.76-1.71,4.72-4.19,5.58-8.59,5.5-12.8-.24-25.61-.08-38.41-.08Z"></path><path class="cls-1" d="M1497.49,710.47c21.69,0,42.5.09,63.32-.07,4.47-.03,5.38,3.26,6.96,6.05,11.53,20.3,22.98,40.64,34.57,60.91,1.43,2.51,2,6.28,5.78,6.45,4.39.2,4.85-4.06,6.39-6.75,11.62-20.25,23.09-40.59,34.6-60.9,1.47-2.59,2.27-5.73,6.29-5.72,21.06.06,42.12.03,64.58.03-7.13,12.12-13.54,23.05-19.98,33.96-18.78,31.84-37.52,63.7-56.41,95.47-2.38,4-3.43,7.98-3.38,12.61.17,15.31-.14,30.63.17,45.94.11,5.49-.98,7.92-7.22,7.76-16.7-.42-33.41-.32-50.12-.04-5.39.09-7.89-1.47-6.91-7.05.05-.27.01-.56,0-.83-.44-18.06,3.82-37.07-1.52-53.94-5.23-16.53-17.24-30.91-26.27-46.23-16.65-28.25-33.3-56.51-49.93-84.77-.27-.46-.35-1.05-.93-2.89Z"></path><path class="cls-1" d="M1039.49,471.02c21.53,0,41.58.16,61.62-.12,4.67-.06,6.86,1.83,8.97,5.62,11.6,20.89,23.42,41.66,35.23,62.44,4.53,7.97,6.4,7.95,10.96-.07,11.54-20.29,23.16-40.54,34.4-60.99,2.71-4.92,5.56-7.19,11.54-7.05,19.48.45,38.97.17,58.54.17.86,3.66-1.78,5.8-3.24,8.28-23.53,40-47.12,79.97-70.79,119.89-2.63,4.43-4,8.84-3.9,14.1.28,15.59-.1,31.18.21,46.77.1,5.11-1.4,6.68-6.54,6.59-17.26-.29-34.53-.29-51.78,0-5.14.09-6.82-1.45-6.54-6.59.41-7.49-.71-15.13.26-22.53,2.97-22.74-4.59-41.82-16.65-60.81-20.41-32.12-38.98-65.41-58.3-98.22-1.23-2.09-2.29-4.28-3.99-7.48Z"></path><path class="cls-1" d="M1262.28,950.28c-16.45,27.92-32.2,54.65-47.96,81.37-9.31,15.79-18.54,31.62-28.02,47.3-2.4,3.97-3.51,7.89-3.45,12.53.2,15.85-.12,31.72.19,47.57.1,5.16-1.49,6.65-6.6,6.57-17.24-.29-34.5-.31-51.74,0-5.26.1-6.78-1.61-6.5-6.67.39-6.93-.65-14,.23-20.84,3.08-23.83-4.6-43.97-17.4-63.89-20.25-31.52-38.44-64.35-57.49-96.64-1.23-2.09-2.34-4.24-4.01-7.3,22.14,0,43.18.1,64.22-.08,4.16-.04,4.85,2.93,6.29,5.46,11.79,20.77,23.53,41.56,35.35,62.31,4.5,7.9,6.4,7.88,10.96-.15,11.79-20.76,23.57-41.52,35.19-62.37,1.92-3.44,3.84-5.36,8.25-5.3,20.3.27,40.61.12,62.5.12Z"></path><path class="cls-1" d="M1292.74,970.2c3.15-6.74,5.6-11.99,8.05-17.24.9-1.93,2.21-3.23,4.53-2.55,2.26.65,1.54,2.64,1.56,4.13.07,6.66.06,13.33,0,19.99-.01,1.29.24,3.05-1.68,3.22-2.22.19-2.57-1.48-2.74-3.26-.28-2.95.69-6.01-.99-9.34-3.01,2.57-3.6,6.24-5.32,9.22-.79,1.37-1.1,3.31-3.18,3.47-2.61.2-2.99-2.07-3.81-3.72-1.57-3.14-3.02-6.34-5.88-9.31,0,2.86.02,5.72,0,8.58-.02,1.9.34,4.29-2.44,4.43-3.09.16-2.4-2.45-2.43-4.21-.09-6.38-.08-12.77,0-19.16.02-1.5-.66-3.46,1.64-4.07,2.33-.62,3.59.64,4.51,2.58,2.46,5.25,4.97,10.47,8.19,17.24Z"></path><path class="cls-1" d="M1336.81,958.1c-3.25,2.1-4.72-.12-6.56-1.8-4.04-3.68-8.44-3.15-11.8.56-4.04,4.45-4.09,9.76.02,14.31,3.51,3.88,7.96,3.93,11.84.52,2.87-2.53,4.77-5.99,7.24.52.76,2,2.44-.61,3.03-1.95,2.57-5.83,5.15-11.67,7.57-17.57.76-1.87,1.91-2.92,3.72-2.17,2.65,1.09.47,2.84,0,4-2.64,6.7-5.41,13.36-8.34,19.94-1.21,2.73-2.8,6.07-5.2.58-1.78-4.07-3.3-.64-4.66.36-5.58,4.07-11.42,4.53-17.01.57-5.64-3.99-6.88-9.86-5.09-16.34,1.64-5.97,5.44-9.45,11.89-9.72,6.38-.27,11.33,1.51,13.36,8.22Z"></path><path class="cls-1" d="M1387.67,965.29c-1.97,2.17-.9,4.45-1.25,6.49-.38,2.21,1.22,5.92-2.55,5.85-3.19-.05-1.77-3.49-1.84-5.42-.2-5.55-.2-11.11,0-16.66.07-1.85-1.48-4.77,2.14-5.25,3-.4,3.54,2.06,4.48,4.01,2.26,4.73,4.51,9.46,7.42,15.58,2.95-6.04,5.38-11.03,7.82-16.01.98-1.99,1.87-4.23,4.77-3.55,2.85.66,1.75,3.09,1.79,4.78.13,6.38.07,12.77.03,19.16,0,1.64.09,3.61-2.29,3.59-2.13-.02-2.6-1.65-2.59-3.48.02-3.19,0-6.37-1.26-9.83-1.65,3.39-3.34,6.76-4.95,10.16-2.36,4.96-4.42,3.97-6.64-.16-1.63-3.03-2.15-6.76-5.09-9.25Z"></path><path class="cls-1" d="M1367.87,950.22c1.66,0,3.38-.29,4.96.06,2.09.47,5.75-1.89,5.97,2.04.18,3.23-3.16,2.32-5.16,2.33-3.52.01-3.98,2.09-3.94,4.89.06,4.98.01,9.96-.02,14.94-.01,1.81-.52,3.42-2.7,3.26-1.94-.14-1.67-1.91-1.69-3.19-.08-3.59,0-7.19-.05-10.79-.05-4.72,1.62-10.7-6.89-9.24-1.41.24-2.75-.65-2.66-2.4.1-1.94,1.74-1.83,3.04-1.87,3.04-.08,6.09-.03,9.13-.03Z"></path></g></svg>