<svg xmlns="http://www.w3.org/2000/svg" id="Layer_2" viewBox="0 0 2380.01 1370.7"><defs><style>.cls-1{fill:#656d78;stroke-width:0px;}</style></defs><g id="Layer_1-2"><path class="cls-1" d="M2206.08,40c35.78,0,69.41,13.93,94.71,39.23,25.3,25.3,39.23,58.93,39.23,94.71v1022.84c0,35.78-13.93,69.41-39.23,94.71-25.3,25.3-58.93,39.23-94.71,39.23H173.93c-35.78,0-69.41-13.93-94.71-39.23-25.3-25.3-39.23-58.93-39.23-94.71V173.93c0-35.78,13.93-69.41,39.23-94.71,25.3-25.3,58.93-39.23,94.71-39.23h2032.14M2206.08,0H173.93C77.87,0,0,77.87,0,173.93v1022.84c0,96.06,77.87,173.93,173.93,173.93h2032.14c96.06,0,173.93-77.87,173.93-173.93V173.93c0-96.06-77.87-173.93-173.93-173.93h0Z"></path><path class="cls-1" d="M821.11,927.07c15.82,3.21,26.93,7.1,33.33,11.66,9.18,6.49,13.77,14.91,13.77,25.25,0,10.91-5.04,19.93-15.12,27.06-12.38,8.63-30.38,12.94-53.99,12.94h-84.74v-3.96c7.71,0,12.93-.62,15.68-1.87,2.75-1.25,4.67-2.87,5.78-4.87,1.11-1.99,1.66-6.92,1.66-14.76v-94.14c0-7.84-.55-12.78-1.66-14.81-1.1-2.03-3.05-3.65-5.84-4.87-2.79-1.21-7.99-1.82-15.62-1.82v-3.96h79.94c19.11,0,32.63,1.48,40.59,4.44,7.95,2.96,14.23,7.38,18.81,13.26,4.59,5.88,6.89,12.14,6.89,18.77,0,6.99-2.91,13.21-8.73,18.67-5.82,5.45-16.07,9.79-30.75,13ZM776.34,932.53v46.53l-.12,5.35c0,3.85,1.13,6.76,3.38,8.72,2.26,1.96,5.6,2.94,10.03,2.94,6.56,0,12.61-1.27,18.14-3.8,5.53-2.53,9.78-6.2,12.73-11.02,2.95-4.81,4.43-10.18,4.43-16.1,0-6.77-1.81-12.85-5.41-18.24-3.61-5.38-8.57-9.14-14.88-11.28-6.32-2.14-15.74-3.17-28.29-3.1ZM776.34,924.18c11.64,0,20.23-1.14,25.77-3.42,5.53-2.28,9.78-5.49,12.73-9.63,2.95-4.13,4.43-9.41,4.43-15.83s-1.46-11.68-4.37-15.78c-2.91-4.1-7.07-7.22-12.48-9.36-5.41-2.14-14.1-3.17-26.07-3.1v57.12Z"></path><path class="cls-1" d="M930.57,858.93v124.3c0,7.06.94,11.57,2.83,13.53,1.89,1.96,5.58,3.09,11.07,3.37v3.85h-62.11v-3.85c5.08-.14,8.85-1.43,11.32-3.85,1.64-1.64,2.46-5.99,2.46-13.05v-103.55c0-6.99-.95-11.46-2.83-13.43-1.89-1.96-5.53-3.08-10.94-3.37v-3.96h48.21Z"></path><path class="cls-1" d="M1066.59,903.97v78.3c0,7.63.82,12.39,2.46,14.28,1.64,1.89,4.96,3.09,9.96,3.59v3.85h-46.86v-13.37c-5.5,5.71-10.99,9.86-16.48,12.46-5.49,2.6-11.64,3.91-18.45,3.91s-12.23-1.73-17.28-5.19c-5.04-3.46-8.42-7.51-10.14-12.14-1.73-4.63-2.59-12.73-2.59-24.28v-39.69c0-7.56-.8-12.26-2.39-14.12-1.6-1.85-4.94-3.07-10.03-3.64v-3.96h46.86v68.36c0,7.13.39,11.73,1.17,13.8.78,2.07,2.01,3.64,3.69,4.71,1.68,1.07,3.63,1.6,5.84,1.6,2.95,0,5.62-.67,8-2.03,3.28-1.85,7.21-5.6,11.8-11.23v-53.48c0-7.56-.8-12.26-2.4-14.12-1.6-1.85-4.94-3.07-10.02-3.64v-3.96h46.86Z"></path><path class="cls-1" d="M1193.02,950.39h-63.09c.74,13.26,4.8,23.75,12.18,31.45,5.66,5.92,12.46,8.88,20.41,8.88,4.92,0,9.39-1.19,13.41-3.58,4.01-2.39,8.32-6.69,12.91-12.89l4.18,2.35c-6.23,11.05-13.12,18.88-20.66,23.48-7.55,4.6-16.28,6.9-26.2,6.9-17.06,0-29.97-5.71-38.74-17.11-7.05-9.2-10.57-20.61-10.57-34.23,0-16.69,5.18-29.97,15.55-39.84,10.37-9.88,22.53-14.81,36.47-14.81,11.65,0,21.75,4.16,30.32,12.46,8.57,8.31,13.18,20.63,13.84,36.96ZM1162.77,943.22c0-11.48-.72-19.36-2.16-23.64-1.43-4.28-3.67-7.52-6.7-9.73-1.72-1.29-4.02-1.93-6.89-1.93-4.26,0-7.75,1.82-10.46,5.46-4.84,6.35-7.25,15.05-7.25,26.1v3.74h33.45Z"></path><path class="cls-1" d="M1380.2,855.62l1.35,48.35h-5.04c-2.38-12.12-8.22-21.88-17.52-29.26-9.31-7.38-19.37-11.07-30.19-11.07-8.36,0-14.99,1.94-19.86,5.83-4.88,3.89-7.32,8.36-7.32,13.43,0,3.21.86,6.06,2.58,8.56,2.38,3.35,6.19,6.67,11.44,9.95,3.86,2.35,12.75,6.52,26.69,12.51,19.51,8.34,32.67,16.22,39.48,23.64,6.72,7.42,10.08,15.9,10.08,25.46,0,12.12-5.43,22.55-16.29,31.29-10.86,8.74-24.66,13.1-41.39,13.1-5.25,0-10.21-.46-14.88-1.39-4.67-.93-10.54-2.67-17.59-5.24-3.93-1.42-7.17-2.14-9.72-2.14-2.13,0-4.39.71-6.77,2.14-2.38,1.43-4.3,3.6-5.78,6.53h-4.55v-54.77h4.55c3.61,15.4,10.56,27.15,20.85,35.25,10.29,8.09,21.37,12.14,33.26,12.14,9.18,0,16.5-2.17,21.96-6.53,5.45-4.35,8.18-9.41,8.18-15.19,0-3.42-1.05-6.74-3.14-9.95-2.09-3.21-5.27-6.26-9.53-9.15-4.26-2.89-11.8-6.65-22.63-11.29-15.17-6.49-26.07-12.02-32.72-16.58-6.64-4.56-11.75-9.66-15.31-15.3-3.57-5.63-5.35-11.84-5.35-18.61,0-11.55,4.88-21.39,14.63-29.52,9.75-8.13,22.06-12.19,36.9-12.19,5.41,0,10.66.57,15.74,1.71,3.85.86,8.54,2.44,14.08,4.76,5.53,2.32,9.4,3.48,11.62,3.48s3.81-.57,5.04-1.71c1.23-1.14,2.38-3.89,3.44-8.24h3.69Z"></path><path class="cls-1" d="M1457.19,858.93v95.42l26.69-22.78c5.49-4.63,8.92-7.99,10.27-10.06,1.35-2.07,2.03-4.06,2.03-5.99s-.9-3.53-2.71-4.81c-1.81-1.28-5.33-2.21-10.58-2.78v-3.96h51.54v3.96c-4.92.21-9.22,1.23-12.91,3.05s-10.91,7.29-21.64,16.42l-12.55,10.7,27.06,34.44c10.91,13.98,17.39,21.82,19.44,23.53,2.79,2.42,6.31,3.78,10.58,4.06v3.85h-59.41v-3.85c2.62,0,4.53-.43,5.72-1.29,1.19-.85,1.78-1.78,1.78-2.78,0-1.64-1.72-4.67-5.17-9.09l-22.75-28.99-7.38,6.31v17.97c0,7.63.82,12.39,2.46,14.28,1.64,1.89,5,3.09,10.08,3.59v3.85h-59.4v-3.85c4.84-.43,8.28-1.78,10.33-4.06,1.4-1.57,2.09-6.17,2.09-13.8v-101.62c0-7.56-.8-12.26-2.4-14.12-1.6-1.86-4.94-3.07-10.02-3.64v-3.96h46.86Z"></path><path class="cls-1" d="M1603.3,1008.05l-37.15-74.13c-5.58-11.19-9.7-18.08-12.36-20.64-2.67-2.57-5.88-4.35-9.65-5.35v-3.96h61.12v3.96c-4.01.14-6.84.82-8.49,2.03-1.64,1.21-2.46,2.67-2.46,4.39,0,2.71,2.05,8.06,6.15,16.04l19.68,39.15,13.4-30.27c4.84-10.77,7.26-18.26,7.26-22.46,0-2.64-1.01-4.74-3.02-6.31-2.01-1.57-5.55-2.42-10.64-2.57v-3.96h38.49v3.96c-3.77.36-6.84,1.63-9.22,3.8-2.38,2.17-6.36,9.57-11.93,22.19l-32.83,74.13c-8.28,18.54-14.43,29.95-18.45,34.23-5.66,5.99-12.75,8.99-21.28,8.99-6.81,0-12.32-1.69-16.54-5.08-4.23-3.39-6.34-7.47-6.34-12.25,0-4.14,1.46-7.56,4.37-10.27,2.91-2.71,6.5-4.06,10.76-4.06s7.4,1.14,9.9,3.42c2.5,2.28,3.79,5.81,3.88,10.59.08,2.71.45,4.46,1.1,5.24.66.78,1.6,1.18,2.83,1.18,1.96,0,4.06-1.03,6.27-3.1,3.28-3,7.13-9.84,11.56-20.54l3.57-8.34Z"></path><path class="cls-1" d="M787.38,1052.81h28.45c4.65,0,8.4,1.09,11.26,3.26,2.85,2.17,4.28,5.03,4.28,8.59v6.32c0,3.73-1.49,6.72-4.48,8.98-2.98,2.26-6.91,3.39-11.77,3.39h-18.47v15.53h-9.27v-46.06ZM814.96,1076.63c2.17,0,3.9-.55,5.19-1.64,1.3-1.09,1.94-2.52,1.94-4.28v-5.85c0-1.62-.58-2.92-1.75-3.88-1.16-.96-2.72-1.45-4.68-1.45h-19.03v17.1h18.31Z"></path><path class="cls-1" d="M838.35,1052.81h28.61c4.54,0,8.21,1.03,11.02,3.1,2.8,2.06,4.2,4.78,4.2,8.16v4.68c0,2.28-.84,4.29-2.5,6.02-1.67,1.74-3.98,3.02-6.94,3.85v.13c1.69.83,3.05,1.9,4.09,3.19,1.03,1.29,1.91,2.97,2.66,5.03l4.43,11.91h-9.59l-4.28-11.39c-.69-1.98-1.74-3.49-3.17-4.54-1.42-1.05-3.09-1.58-4.99-1.58h-14.27v17.51h-9.27v-46.06ZM864.9,1074.73c2.43,0,4.37-.55,5.83-1.64,1.45-1.1,2.18-2.52,2.18-4.28v-4.54c0-1.4-.56-2.54-1.67-3.42-1.11-.87-2.59-1.31-4.44-1.31h-19.18v15.2h17.28Z"></path><path class="cls-1" d="M899.14,1097.27c-3.06-1.42-5.44-3.44-7.13-6.06-1.69-2.61-2.54-5.62-2.54-9.04v-12.64c0-3.42.85-6.44,2.54-9.04,1.69-2.61,4.07-4.63,7.13-6.06,3.06-1.42,6.61-2.14,10.62-2.14h8.4c4.01,0,7.57.71,10.66,2.14,3.1,1.43,5.48,3.44,7.18,6.06,1.69,2.61,2.54,5.62,2.54,9.04v12.64c0,3.42-.85,6.44-2.54,9.04-1.69,2.61-4.08,4.63-7.18,6.06-3.09,1.42-6.65,2.14-10.66,2.14h-8.4c-4.02,0-7.56-.71-10.62-2.14ZM918.17,1092.62c3.27,0,5.94-.99,8.01-2.96,2.06-1.97,3.09-4.56,3.09-7.76v-12.11c0-3.2-1.02-5.79-3.05-7.76-2.03-1.97-4.72-2.96-8.04-2.96h-8.33c-3.33,0-6.01.99-8.04,2.96-2.03,1.98-3.05,4.57-3.05,7.76v12.11c0,3.21,1.02,5.79,3.05,7.76,2.03,1.98,4.72,2.96,8.04,2.96h8.33Z"></path><path class="cls-1" d="M947.74,1052.81h28.45c4.65,0,8.4,1.09,11.26,3.26,2.85,2.17,4.28,5.03,4.28,8.59v6.32c0,3.73-1.49,6.72-4.48,8.98-2.98,2.26-6.91,3.39-11.77,3.39h-18.47v15.53h-9.27v-46.06ZM975.31,1076.63c2.17,0,3.9-.55,5.19-1.64,1.3-1.09,1.94-2.52,1.94-4.28v-5.85c0-1.62-.58-2.92-1.75-3.88-1.16-.96-2.72-1.45-4.68-1.45h-19.03v17.1h18.31Z"></path><path class="cls-1" d="M1000.56,1097.33c-1.24-1.03-1.86-2.38-1.86-4.05v-40.47h40.66v6.65h-31.39v12.5h29.01v6.71h-29.01v13.56h31.39v6.65h-33.85c-2.06,0-3.71-.51-4.95-1.55Z"></path><path class="cls-1" d="M1047.76,1052.81h28.61c4.54,0,8.21,1.03,11.02,3.1,2.8,2.06,4.2,4.78,4.2,8.16v4.68c0,2.28-.84,4.29-2.5,6.02-1.67,1.74-3.98,3.02-6.94,3.85v.13c1.69.83,3.05,1.9,4.09,3.19,1.03,1.29,1.91,2.97,2.66,5.03l4.43,11.91h-9.59l-4.28-11.39c-.69-1.98-1.74-3.49-3.17-4.54-1.42-1.05-3.09-1.58-4.99-1.58h-14.27v17.51h-9.27v-46.06ZM1074.31,1074.73c2.43,0,4.37-.55,5.83-1.64,1.45-1.1,2.18-2.52,2.18-4.28v-4.54c0-1.4-.56-2.54-1.67-3.42-1.11-.87-2.59-1.31-4.44-1.31h-19.18v15.2h17.28Z"></path><path class="cls-1" d="M1113.47,1059.46h-17.6v-6.65h44.47v6.65h-17.6v39.42h-9.28v-39.42Z"></path><path class="cls-1" d="M1162.62,1081.04l-20.53-28.23h10.07l15.06,21.19,15.06-21.19h10.06l-20.53,28.23v17.83h-9.19v-17.83Z"></path><path class="cls-1" d="M1223.02,1095.46c-3.17-2.63-4.76-6.23-4.76-10.79h9.11c0,2.45.78,4.4,2.34,5.82s3.71,2.14,6.46,2.14h8.8c2.59,0,4.68-.47,6.27-1.41,1.59-.94,2.38-2.18,2.38-3.72v-2.9c0-1.18-.56-2.17-1.67-2.96-1.11-.79-2.69-1.33-4.76-1.64l-14.43-2.04c-4.49-.61-7.94-1.84-10.35-3.68-2.4-1.84-3.6-4.19-3.6-7.04v-3.62c0-2.23.72-4.21,2.18-5.92,1.45-1.71,3.5-3.04,6.14-3.98,2.64-.94,5.71-1.41,9.19-1.41h8.96c3.27,0,6.17.56,8.68,1.68,2.51,1.12,4.46,2.71,5.83,4.77,1.38,2.06,2.06,4.43,2.06,7.11h-9.03c0-2.02-.7-3.65-2.1-4.9-1.4-1.25-3.21-1.87-5.43-1.87h-8.96c-2.48,0-4.48.45-5.98,1.34-1.51.9-2.26,2.12-2.26,3.65v2.37c0,1.23.52,2.25,1.59,3.06,1.05.81,2.59,1.35,4.59,1.61l14.43,2.1c4.55.66,8.04,1.88,10.5,3.65,2.46,1.78,3.69,4.05,3.69,6.81v4.28c0,2.24-.74,4.22-2.22,5.95-1.48,1.74-3.57,3.08-6.26,4.05-2.69.96-5.79,1.45-9.28,1.45h-9.11c-5.5,0-9.83-1.32-13-3.95Z"></path><path class="cls-1" d="M1273.23,1097.33c-1.24-1.03-1.86-2.38-1.86-4.05v-40.47h40.66v6.65h-31.39v12.5h29.01v6.71h-29.01v13.56h31.39v6.65h-33.85c-2.06,0-3.71-.51-4.95-1.55Z"></path><path class="cls-1" d="M1320.44,1052.81h28.61c4.54,0,8.21,1.03,11.02,3.1,2.8,2.06,4.2,4.78,4.2,8.16v4.68c0,2.28-.84,4.29-2.5,6.02-1.67,1.74-3.98,3.02-6.94,3.85v.13c1.69.83,3.05,1.9,4.09,3.19,1.03,1.29,1.91,2.97,2.66,5.03l4.43,11.91h-9.59l-4.28-11.39c-.69-1.98-1.74-3.49-3.17-4.54-1.42-1.05-3.09-1.58-4.99-1.58h-14.27v17.51h-9.27v-46.06ZM1346.99,1074.73c2.43,0,4.37-.55,5.83-1.64,1.45-1.1,2.18-2.52,2.18-4.28v-4.54c0-1.4-.56-2.54-1.67-3.42-1.11-.87-2.59-1.31-4.44-1.31h-19.18v15.2h17.28Z"></path><path class="cls-1" d="M1387.89,1095.06l-19.02-42.25h9.59l15.54,36.46h.08l15.62-36.46h9.51l-21.08,46.06h-4.44c-2.65,0-4.57-1.27-5.79-3.82Z"></path><path class="cls-1" d="M1426.18,1052.81h9.27v46.06h-9.27v-46.06Z"></path><path class="cls-1" d="M1454.79,1097.27c-2.96-1.42-5.26-3.44-6.9-6.06-1.64-2.61-2.46-5.62-2.46-9.04v-12.64c0-3.42.84-6.44,2.5-9.04,1.67-2.61,4-4.63,7.02-6.06,3.01-1.42,6.5-2.14,10.46-2.14h8.4c3.75,0,7.08.67,9.99,2.01,2.91,1.34,5.16,3.22,6.74,5.66,1.59,2.44,2.38,5.26,2.38,8.46h-9.12c0-2.81-.92-5.07-2.77-6.77-1.85-1.71-4.25-2.57-7.21-2.57h-8.4c-3.22,0-5.81.99-7.76,2.96-1.95,1.98-2.93,4.57-2.93,7.76v12.11c0,3.25.95,5.85,2.85,7.8,1.9,1.95,4.41,2.92,7.53,2.92h8.56c3.06,0,5.55-.96,7.45-2.89,1.9-1.93,2.85-4.43,2.85-7.5h9.11c0,3.42-.8,6.43-2.42,9.01-1.61,2.59-3.88,4.6-6.82,6.02-2.93,1.42-6.33,2.14-10.19,2.14h-8.56c-3.91,0-7.34-.71-10.3-2.14Z"></path><path class="cls-1" d="M1502.7,1097.33c-1.24-1.03-1.86-2.38-1.86-4.05v-40.47h40.66v6.65h-31.39v12.5h29.01v6.71h-29.01v13.56h31.39v6.65h-33.85c-2.06,0-3.71-.51-4.95-1.55Z"></path><path class="cls-1" d="M1552.76,1095.46c-3.17-2.63-4.76-6.23-4.76-10.79h9.11c0,2.45.78,4.4,2.34,5.82,1.56,1.42,3.71,2.14,6.46,2.14h8.8c2.59,0,4.68-.47,6.27-1.41,1.59-.94,2.38-2.18,2.38-3.72v-2.9c0-1.18-.56-2.17-1.67-2.96-1.11-.79-2.69-1.33-4.76-1.64l-14.43-2.04c-4.49-.61-7.94-1.84-10.35-3.68s-3.6-4.19-3.6-7.04v-3.62c0-2.23.72-4.21,2.18-5.92,1.45-1.71,3.5-3.04,6.14-3.98,2.64-.94,5.71-1.41,9.19-1.41h8.96c3.27,0,6.17.56,8.68,1.68,2.51,1.12,4.46,2.71,5.83,4.77,1.38,2.06,2.06,4.43,2.06,7.11h-9.03c0-2.02-.7-3.65-2.1-4.9-1.4-1.25-3.21-1.87-5.43-1.87h-8.96c-2.48,0-4.48.45-5.98,1.34-1.51.9-2.26,2.12-2.26,3.65v2.37c0,1.23.52,2.25,1.59,3.06,1.05.81,2.59,1.35,4.59,1.61l14.43,2.1c4.55.66,8.04,1.88,10.5,3.65,2.46,1.78,3.69,4.05,3.69,6.81v4.28c0,2.24-.74,4.22-2.22,5.95-1.48,1.74-3.57,3.08-6.26,4.05-2.69.96-5.79,1.45-9.28,1.45h-9.11c-5.5,0-9.83-1.32-13-3.95Z"></path><path class="cls-1" d="M1168.1,689.66l-89.26-73.72-235.39,194.38h470.78l-120.89-99.82-25.25-20.83ZM1170.25,729.56l-31.28-20.04-60.13-38.52-120.77,77.35,120.77-100.73,67.88,56.62,52.89,44.11-29.36-18.8Z"></path><polygon class="cls-1" points="714.36 262.24 714.36 810.32 762.24 810.32 1078.84 594.28 1193.37 672.42 1307.88 594.28 1624.48 810.32 1665.65 810.32 1665.65 262.24 714.36 262.24"></polygon><polygon class="cls-1" points="1218.62 689.64 1395.45 810.32 1543.27 810.32 1307.88 615.94 1218.62 689.64"></polygon></g></svg>