<svg xmlns="http://www.w3.org/2000/svg" id="Layer_2" viewBox="0 0 2380 1370.7"><defs><style>.cls-1{fill:#656d78;stroke-width:0px;}</style></defs><g id="Layer_2-2"><g id="Layer_1-2"><path class="cls-1" d="M2206.08,40c35.78,0,69.41,13.93,94.71,39.23,25.3,25.3,39.23,58.93,39.23,94.71v1022.84c0,35.78-13.93,69.41-39.23,94.71-25.3,25.3-58.93,39.23-94.71,39.23H173.93c-35.77,0-69.41-13.93-94.71-39.23-25.3-25.3-39.23-58.93-39.23-94.71V173.93c0-35.78,13.93-69.41,39.23-94.71,25.3-25.3,58.93-39.23,94.71-39.23h2032.14M2206.08,0H173.93C77.87,0,0,77.87,0,173.93v1022.84c0,96.06,77.87,173.93,173.93,173.93h2032.14c96.06,0,173.93-77.87,173.93-173.93V173.93c0-96.06-77.87-173.93-173.93-173.93h.01Z"></path></g><path class="cls-1" d="M2112.26,1007.6c-4.5.35-9.04-.02-13.49.46-4.17.45-6.9-.94-9.05-4.33-5.79-9.13-11.63-18.22-17.5-27.29-3.37-5.2-6.85-10.32-10.55-15.89h-26.95v-17.27c5.92,0,11.91.43,17.82-.11,7.5-.68,15.34-1.05,22.29-3.57,8.17-2.96,14.26-8.98,17.23-17.97,3.03-9.17,3.08-17.89-.21-26.88-2.84-7.77-8.34-12.93-15.64-16.06-9.03-3.87-18.67-5.01-28.45-5-11.32,0-22.64,0-34.28,0v133.96h-17.98v-151.16h22.43c10.78,0,21.57-.4,32.33.11,10.97.53,21.98,1.25,32.41,5.54,9.12,3.75,17.01,9.01,21.97,17.65,2.52,4.4,4.03,9.37,6.03,14.07.25.58.71,1.06,1.34,1.34.27,8.24.27,16.71-.06,25.58-.66.86-1.15,1.28-1.28,1.8-2.24,8.67-5.9,16.57-12.46,22.86-4.71,4.52-10.15,7.92-16.32,10.13-2.32.83-3.34,1.88-1.1,4.22,2.21,2.31,4.12,4.95,5.93,7.61,6.75,9.88,13.34,19.88,20.13,29.73,1.5,2.18,3.6,3.95,5.43,5.91v4.56Z"></path><path class="cls-1" d="M1042.25,709.13h-59.57c-.07-1.33-.19-2.51-.19-3.68,0-65.48,0-130.96-.04-196.44,0-2.13.43-3.54,2.35-4.9,10.92-7.72,21.79-15.51,32.5-23.51,14.92-11.15,29.63-22.6,44.55-33.75,7.16-5.35,14.73-10.16,21.89-15.51,19.13-14.29,38.1-28.81,57.21-43.12,12.28-9.19,24.7-18.19,37.08-27.23.57-.42,1.42-.46,2.39-.76v120.26h-21.87v-77.12c-3.89,2.65-6.95,4.57-9.83,6.72-13.89,10.4-27.7,20.9-41.59,31.3-9.09,6.8-18.26,13.48-27.38,20.25-17,12.61-33.97,25.27-50.99,37.86-7.15,5.29-14.55,10.26-21.54,15.75-1.53,1.2-2.52,4.01-2.53,6.08-.15,38.74-.11,77.48-.11,116.23v50.17h175.79v21.41h-138.13Z"></path><path class="cls-1" d="M1340.48,460.07c9.11,6.91,17.95,13.69,26.92,20.3,10.28,7.57,20.63,15.05,31.05,22.43,2.77,1.96,4.15,3.92,4.14,7.66-.16,66.03-.11,132.05-.11,198.38h-197.14v-102.68h21.93v81.53h153.1v-4.1c0-53.89-.03-107.77.07-161.66,0-3.77-1.27-6.08-4.29-8.25-8.08-5.79-15.85-12.01-23.85-17.93-12.36-9.15-24.84-18.15-37.2-27.3-9.69-7.17-19.26-14.52-28.95-21.7-18.68-13.84-37.42-27.61-56.12-41.42-7.67-5.66-15.33-11.34-22.92-17.11-.89-.68-1.84-1.96-1.86-2.97-.15-8.17-.08-16.35-.08-25.79,45.51,33.83,90.3,67.11,135.31,100.61Z"></path><path class="cls-1" d="M1731.43,991.02c-8.46-6.93-15.23-15.09-19.9-24.44-3.45-6.9-5.08-14.8-6.88-22.41-2.56-10.82-1.18-21.8,1.88-32.15,2.81-9.5,7.32-18.37,13.88-26.38,7.31-8.94,15.93-15.92,26.02-20.75,7.44-3.56,15.72-5.74,23.86-7.42,12.11-2.5,24.23-.98,36.09,2.31,14.42,4.01,26.63,11.67,36.74,22.69,8.95,9.76,15.26,21.25,17.53,34.08,2.41,13.58,2.43,27.63-2.38,40.93-5.38,14.9-14.67,27.11-27.49,36.53-7.56,5.56-15.98,9.64-24.96,11.91-13.56,3.42-27.22,4.24-41.22.77-7.87-1.95-15.27-4.61-22.35-8.25-3.78-1.94-7.09-4.77-10.83-7.43M1732.91,900.63c-1.54,2.41-3.37,4.69-4.55,7.27-2.75,6.01-4.36,12.24-5.22,18.93-1.27,9.75.41,18.8,3.84,27.62,3.63,9.33,9.38,17.47,17.56,23.28,6.16,4.37,12.82,8.33,19.79,11.19,7.59,3.12,16,3.5,24.16,2.55,5.43-.64,10.89-1.95,16.04-3.8,4.62-1.66,9.23-3.92,13.12-6.88,4.98-3.79,9.92-8.03,13.63-13.01,5.08-6.82,9.24-14.4,10.54-23.09.69-4.6,2.22-9.32,1.69-13.79-.77-6.59-2.65-13.13-4.75-19.47-3.69-11.13-11.2-19.49-20.57-26.29-6.92-5.02-14.63-7.92-22.95-10-11.39-2.85-22.22-1.6-32.79,2.55-5.55,2.18-11.16,4.84-15.83,8.47-5.04,3.92-9,9.21-13.72,14.47Z"></path><path class="cls-1" d="M1281.31,863.88v-7.19c1.32-.07,2.49-.19,3.66-.19,18.55-.01,37.11-.33,55.65.14,7.91.2,15.99,1.28,23.62,3.34,7.61,2.05,15.23,5.04,21.98,9.07,5.78,3.45,10.45,8.82,15.39,13.58,6.94,6.69,11.31,15.22,14.34,24.06,4.07,11.86,4.48,24.25,3.08,36.85-1.16,10.5-4.56,19.88-9.92,28.78-7.17,11.89-17.06,20.68-29.43,27.02-12.87,6.6-26.44,8.85-40.73,8.67-19.07-.24-38.15-.06-57.44-.06v-88.2h17.69v71.65c1.49.07,2.66.17,3.84.17,13.1.01,26.2.37,39.28-.11,10.31-.38,20.64-2.36,29.56-7.65,12.97-7.69,22.55-18.74,27-33.44,3.09-10.2,3.86-20.56,1.12-31.14-3.82-14.73-11.9-26.44-24.34-34.91-8.31-5.66-17.69-9.44-27.86-9.73-20.52-.58-41.06-.64-61.58-.91-1.48-.02-2.97,0-4.93,0v-9.8Z"></path><path class="cls-1" d="M864.45,980.67c7.82-9.78,5.03-24.43-5.58-30.94-7.63-4.68-15.96-7.18-24.36-9.82-12.05-3.79-24.41-6.92-34.95-14.46-9.26-6.63-13.74-15.6-14.44-26.9-.75-12.03,3.02-22.08,12.14-29.92,5.97-5.13,12.99-7.91,20.7-9.91,7.99-2.08,15.9-2.36,23.93-2.19,10.53.22,20.64,2.53,30.21,7.03,4.68,2.2,9.37,4.37,14.41,6.71-3.12,6.07-5.85,11.37-8.18,15.89-8.5-3.3-16.1-6.89-24.07-9.18-13.06-3.75-26.41-4.27-38.95,1.82-7.92,3.85-13.17,14.13-8.54,23.04,3.65,7.02,8.71,11.28,15.72,13.74,11.92,4.18,24.12,7.68,35.82,12.4,10.07,4.06,20.02,8.74,25.94,18.92,4.79,8.24,5.28,16.9,4.46,26.12-.98,10.96-6.91,18.53-15.09,24.9-6.37,4.96-13.74,7.67-21.57,9.2-11.82,2.32-23.64,3.04-35.34-.66-7.56-2.39-15.43-4.24-22.45-7.75-6.66-3.33-12.4-8.51-18.34-12.74,2.59-5.09,4.8-9.39,6.98-13.7.9-1.79,1.63-2.67,3.81-1,4.82,3.71,9.58,7.8,15.02,10.31,7.53,3.47,15.57,5.99,23.58,8.27,8.47,2.41,17.21,1.14,25.43-1.04,4.86-1.29,9.03-5.18,13.71-8.13Z"></path><path class="cls-1" d="M290.71,939.1c1.72,14.3,7.86,26.04,17.99,35.6,9.02,8.51,19.76,13.9,32.03,16.05,8.14,1.43,16.03.9,24.14-1.3,10.45-2.84,19.77-7.17,27.66-14.66.79-.75,3.56-.68,4.38.1,3.03,2.86,5.68,6.14,8.33,9.38.38.47.25,2.05-.19,2.38-5.64,4.19-11.14,8.63-17.16,12.21-4.54,2.71-9.63,4.72-14.71,6.24-5.65,1.7-11.52,2.94-17.38,3.58-9.42,1.02-18.96.23-27.91-2.57-7.77-2.43-15.73-5.6-22.27-10.3-7.81-5.62-15.11-12.53-20.9-20.19-4.76-6.29-7.45-14.32-10.24-21.88-3.05-8.28-2.86-17.11-2.61-25.87.27-9.66,2.9-18.56,6.95-27.35,3.94-8.55,9.37-15.76,15.95-22.28,9.63-9.56,21.37-15.55,34.24-19.06,9.19-2.51,18.79-3.75,28.33-2.54,6.21.79,12.31,2.67,18.39,4.31,8.98,2.44,16.87,7.07,24.24,12.63,2.16,1.63,4.13,3.51,6.37,5.43-3.5,4.29-6.85,8.48-10.37,12.51-.29.33-1.94-.15-2.7-.65-5.09-3.41-9.85-7.38-15.2-10.29-7.17-3.91-14.97-6.31-23.25-6.91-10.04-.73-19.74.87-28.79,5.03-13.01,5.98-23.3,14.83-29.76,28.15-3.55,7.32-4.98,14.94-6.23,22.68-.48,2.95.41,6.12.68,9.56Z"></path><path class="cls-1" d="M589.74,883.71c-5.28,11.55-10.39,22.85-15.37,34.2-5.08,11.59-10.04,23.24-15.06,34.86-4.54,10.51-9.14,21.01-13.64,31.54-2.92,6.83-5.62,13.75-8.64,20.52-.73,1.63-1.67,3.37-4.38,3.22-5.53-.31-11.09-.09-17.37-.09,5.54-12.05,10.91-23.49,16.07-35.02,2.93-6.55,5.38-13.32,8.3-19.88,2.8-6.29,6.03-12.4,8.91-18.66,3.64-7.93,7.09-15.96,10.68-23.92,3.05-6.78,6.27-13.48,9.26-20.29,2.81-6.42,5.39-12.93,8.11-19.39,1.66-3.95,3.26-7.93,5.18-11.75.76-1.52,1.82-2.91,4.32-2.66,4.19.42,8.46.33,12.67.04,2.76-.19,3.74,1.19,4.69,3.31,3.91,8.77,7.98,17.47,11.87,26.26,2.7,6.1,5.08,12.34,7.8,18.43,3.67,8.21,7.6,16.3,11.26,24.51,2.91,6.54,5.53,13.22,8.38,19.78,1.97,4.54,4.19,8.97,6.19,13.49,2.89,6.51,5.64,13.09,8.55,19.59,2.82,6.32,5.77,12.58,8.65,18.87.93,2.02,1.83,4.05,2.95,6.52-1.37.29-2.46.7-3.55.72-4.09.08-8.19-.05-12.28.06-3.11.08-4.78-.39-5.91-4.21-1.9-6.42-5.41-12.36-8.17-18.54-2.16-4.85-4.16-9.76-6.31-14.61-2.66-5.98-5.48-11.88-8.09-17.88-3.11-7.16-6.02-14.42-9.11-21.59-1.8-4.18-3.83-8.27-5.69-12.42-3.84-8.54-7.64-17.1-11.46-25.65-2.15-4.82-4.29-9.64-6.63-14.9-.73,2.01-1.33,3.66-2.16,5.54Z"></path><path class="cls-1" d="M1010.61,989.24c2.39-5.38,4.49-10.57,6.71-15.71,3.63-8.38,7.28-16.74,11.04-25.06,2.89-6.39,6.09-12.65,8.94-19.06,2.89-6.52,5.37-13.22,8.28-19.73,4.21-9.44,8.7-18.76,12.97-28.17,3.11-6.86,6.04-13.8,9.11-20.67,1.16-2.59,2.4-4.77,6.1-4.45,4.87.42,9.8.1,14.54.1,22.54,50.42,45,100.65,67.71,151.44-6.46,0-12.89.13-19.31-.14-.95-.04-2.14-1.83-2.67-3.05-2.85-6.54-5.45-13.19-8.29-19.73-4.36-10.04-8.81-20.03-13.31-30.01-4.14-9.18-8.48-18.28-12.57-27.48-2.7-6.07-5.05-12.3-7.68-18.39-4.18-9.67-8.47-19.3-12.75-28.93-.18-.4-.81-.6-1.24-.91-6.56,14.82-13.1,29.43-19.5,44.09-3.68,8.45-7.01,17.05-10.74,25.47-3.79,8.58-8.06,16.95-11.79,25.55-4.44,10.26-8.46,20.7-12.83,31-.47,1.1-2.07,2.39-3.19,2.44-5.93.24-11.88.11-18.26.11,2.99-6.5,5.75-12.49,8.74-18.7Z"></path><path class="cls-1" d="M1571.12,997.3v10.41h-17.78v-150.98h17.78v140.57Z"></path></g></svg>