<svg xmlns="http://www.w3.org/2000/svg" id="Layer_2" viewBox="0 0 2380 1370.7"><defs><style>.cls-1{fill:#656d78;stroke-width:0px;}</style></defs><g id="Layer_2-2"><g id="Layer_1-2"><path class="cls-1" d="M2206.08,40c35.78,0,69.41,13.93,94.71,39.23,25.3,25.3,39.23,58.93,39.23,94.71v1022.84c0,35.78-13.93,69.41-39.23,94.71-25.3,25.3-58.93,39.23-94.71,39.23H173.93c-35.77,0-69.41-13.93-94.71-39.23-25.3-25.3-39.23-58.93-39.23-94.71V173.93c0-35.78,13.93-69.41,39.23-94.71,25.3-25.3,58.93-39.23,94.71-39.23h2032.14M2206.08,0H173.93C77.87,0,0,77.87,0,173.93v1022.84c0,96.06,77.87,173.93,173.93,173.93h2032.14c96.06,0,173.93-77.87,173.93-173.93V173.93c0-96.06-77.87-173.93-173.93-173.93h.01Z"></path></g><path class="cls-1" d="M417.57,909.13v-447.57s179.03,0,179.03,0v87.23s-89,0-89,0v71.2s84.43,0,84.43,0v86.21s-84.43,0-84.43,0v202.93s-90.02,0-90.02,0Z"></path><path class="cls-1" d="M625.37,909.13v-447.57s137.32,0,137.32,0c22.89,0,40.18,5.21,51.88,15.64,11.7,10.43,19.54,25.01,23.52,43.74,3.98,18.73,5.98,40.73,5.98,65.99,0,24.41-3.1,43.91-9.28,58.49-6.19,14.58-17.84,24.67-34.97,30.26,14.07,2.88,23.94,9.88,29.63,20.98,5.68,11.11,8.52,25.47,8.52,43.1v169.36s-88.24,0-88.24,0v-175.21c0-13.05-2.67-21.15-8.01-24.29-5.34-3.13-13.95-4.7-25.81-4.7v204.2s-90.53,0-90.53,0ZM716.41,627.37h21.62c12.37,0,18.56-13.48,18.56-40.43,0-17.46-1.36-28.9-4.07-34.33-2.71-5.42-7.8-8.14-15.26-8.14h-20.85s0,82.9,0,82.9Z"></path><path class="cls-1" d="M869.73,909.13v-447.57s86.46,0,86.46,0v447.57s-86.46,0-86.46,0Z"></path><path class="cls-1" d="M980.32,909.13v-81.38s102.48-283.8,102.48-283.8h-92.57s0-82.39,0-82.39h186.91s0,78.32,0,78.32l-104.26,286.85h99.94s0,82.39,0,82.39h-192.51Z"></path><path class="cls-1" d="M1193.85,909.13v-81.38s102.48-283.8,102.48-283.8h-92.56s0-82.39,0-82.39h186.91s0,78.32,0,78.32l-104.26,286.85h99.94s0,82.39,0,82.39h-192.51Z"></path><path class="cls-1" d="M1415.01,909.13v-447.57s86.46,0,86.46,0v447.57s-86.46,0-86.46,0Z"></path><path class="cls-1" d="M1537.31,909.13v-447.57s179.03,0,179.03,0v86.46s-87.99,0-87.99,0v87.22s84.43,0,84.43,0v84.17s-84.43,0-84.43,0v102.48s93.84,0,93.84,0v87.22s-184.88,0-184.88,0Z"></path><path class="cls-1" d="M1858.18,913.2c-40.86,0-70.31-10.17-88.37-30.52-18.05-20.34-27.08-52.72-27.08-97.14v-43.74s88.5,0,88.5,0v55.95c0,10.34,1.57,18.44,4.7,24.29,3.14,5.85,8.6,8.77,16.4,8.77,8.14,0,13.77-2.37,16.91-7.12,3.14-4.74,4.7-12.54,4.7-23.4,0-13.73-1.36-25.22-4.07-34.46-2.71-9.24-7.42-18.06-14.11-26.45-6.7-8.39-15.98-18.18-27.85-29.37l-40.18-38.14c-30.01-28.31-45.01-60.69-45.01-97.14,0-38.14,8.86-67.22,26.57-87.23,17.71-20,43.36-30.01,76.93-30.01,41.03,0,70.14,10.93,87.35,32.8,17.2,21.87,25.81,55.1,25.81,99.69h-91.04s0-30.77,0-30.77c0-6.1-1.74-10.85-5.21-14.24-3.48-3.39-8.18-5.09-14.11-5.09-7.12,0-12.33,1.99-15.64,5.98-3.31,3.99-4.96,9.12-4.96,15.39,0,6.27,1.69,13.06,5.09,20.34,3.39,7.29,10.08,15.68,20.09,25.18l51.62,49.59c10.34,9.83,19.84,20.22,28.48,31.15,8.65,10.93,15.6,23.65,20.85,38.14,5.25,14.5,7.88,32.17,7.88,53.02,0,42.05-7.76,74.98-23.27,98.8-15.51,23.82-42.51,35.73-80.99,35.73Z"></path></g></svg>