<svg xmlns="http://www.w3.org/2000/svg" id="Layer_2" viewBox="0 0 2380.01 1370.71"><defs><style>.cls-1{fill:#656d78;stroke-width:0px;}</style></defs><g id="Layer_1-2"><path class="cls-1" d="M2206.08,40c35.78,0,69.41,13.93,94.71,39.23s39.23,58.93,39.23,94.71v1022.84c0,35.78-13.93,69.41-39.23,94.71-25.3,25.3-58.93,39.23-94.71,39.23H173.93c-35.78,0-69.41-13.93-94.71-39.23-25.3-25.3-39.23-58.93-39.23-94.71V173.93c0-35.77,13.93-69.41,39.23-94.71,25.3-25.3,58.93-39.23,94.71-39.23h2032.14M2206.08,0H173.93C77.87,0,0,77.87,0,173.93v1022.84c0,96.06,77.87,173.93,173.93,173.93h2032.14c96.06,0,173.93-77.87,173.93-173.93V173.93c0-96.06-77.87-173.93-173.93-173.93h0Z"></path><g id="Layer_1-2"><g id="Layer_2-2"><g id="Layer_1-2-2"><g id="Layer_2-2-2"><g id="Layer_1-2-2"><g id="Layer_2-2-2"><g id="Layer_1-2-2-2"><polygon class="cls-1" points="516.62 932.63 242.83 932.63 277.02 986.72 516.62 986.72 756.15 986.72 790.45 932.63 516.62 932.63"></polygon><path class="cls-1" d="M625.91,906.23h-308.02s84.99-117.05,207.55-175.18c0-.11,69.57,82.31,100.47,175.18Z"></path><path class="cls-1" d="M276.68,906.23s103.01-180.04,333.75-255.11c0,0-51.88-56.38-93.78-56.38s-200.94,122.58-239.97,311.5Z"></path><path class="cls-1" d="M564.44,712.9s70.26,85.68,97.93,193.23h100.39s-61.77-167.83-112.58-224.1l-85.74,30.87h0Z"></path><ellipse class="cls-1" cx="516.62" cy="571.55" rx="19.9" ry="14.4"></ellipse><ellipse class="cls-1" cx="516.62" cy="538.46" rx="14.4" ry="10.34"></ellipse><rect class="cls-1" x="509.52" y="506.48" width="14.9" height="89.3"></rect><g id="layer1"><path id="path932" class="cls-1" d="M541.61,511.71c-12.58,4.28-26.15,4.73-38.97,1.27-3.07-.91-6.05-2.02-8.98-3.29-2.32-1-4.59-2.13-6.77-3.4-7.35-4.37-13.82-10.12-19.04-16.92-1.77-2.27-3.34-4.67-4.73-7.19-1.27-2.38-2.46-4.92-3.48-7.38-.86-1.91-1.58-3.84-2.18-5.83-5.97-19.51-2.57-40.69,9.26-57.3,5.42-7.63,12.41-13.96,20.51-18.63,2.52-1.41,5.09-2.63,7.77-3.68,1.99-.94,4.04-1.74,6.11-2.43,7.9-2.46,16.2-3.4,24.46-2.76,4.34.44,8.6,1.3,12.77,2.54l1.6.61h-5.91c-13.1,1.27-25.32,7.16-34.47,16.64-14.37,15.4-18.57,37.73-10.72,57.27,2.99,7.68,7.71,14.57,13.82,20.12,6.38,6,14.1,10.34,22.53,12.69,5.69,1.44,11.55,1.99,17.41,1.63,5.06-.3,10.06-1.38,14.81-3.15,3.32-1.24,6.5-2.79,9.56-4.56,3.43-1.96,6.58-4.34,9.4-7.1.94-.86,1.77-1.88,2.76-2.76s0,0,0,.5c-.58,1.35-1.27,2.68-2.1,3.9-.77,1.27-3.07,4.81-4.75,7.19-3.95,5.06-8.62,9.54-13.82,13.29-5.2,3.62-10.89,6.47-16.92,8.46l.08.28Z"></path></g></g></g><path class="cls-1" d="M919.99,481.91c0-18.02,12.27-22.11,24.3-22.11h13.05c13.96,0,20.48,5.53,25.37,20.48l38.94,125.95h.61l38.45-125.95c4.64-14.98,11.06-20.48,25.37-20.48h12.52c12.02,0,24.3,4.06,24.3,22.11v159.45c1.41,10.97-6.36,20.98-17.33,22.39-10.97,1.41-20.98-6.36-22.39-17.33-.06-.47-.11-.91-.14-1.38-.11-1.22-.11-2.46,0-3.68v-121.37h-.58l-41.65,130.35c-4.09,10.53-15.98,15.75-26.51,11.66-5.33-2.07-9.56-6.3-11.66-11.66l-42.32-130.35h-.61v121.37c1.77,10.89-5.61,21.17-16.5,22.94-10.89,1.77-21.17-5.61-22.94-16.5-.03-.25-.08-.5-.11-.75-.11-.66-.17-1.35-.19-2.02-.11-1.22-.11-2.46,0-3.68v-159.45h.03Z"></path><path class="cls-1" d="M1162.89,482.16c.44-12.35,10.78-22,23.13-21.56,11.72.41,21.14,9.84,21.56,21.56v107.41c0,26.76,14.98,38.7,40.6,38.7s40.63-12.02,40.63-38.7v-107.41c.44-12.35,10.78-22,23.13-21.56,11.72.41,21.14,9.84,21.56,21.56v103.87c0,53.98-33.17,78.28-85.32,78.28s-85.3-24.3-85.3-78.28v-103.87Z"></path><path class="cls-1" d="M1477.73,545.98c40.96,9.31,51.3,33.86,51.3,56.47,0,35.38-26.76,61.86-80.76,61.86s-82.01-28.36-82.01-49.59c-.33-9.89,7.41-18.19,17.3-18.55h1.49c24.3,0,18.02,35.38,63.21,35.38,23.22,0,36.07-12.77,36.07-25.9,0-7.88-3.81-16.92-19.13-20.4l-50.77-12.85c-40.63-10.34-48.01-32.67-48.01-53.68,0-43.59,40.38-60.01,78.3-60.01,34.85,0,76.17,19.65,76.17,45.8-.41,10.25-9.07,18.27-19.32,17.86h-1.16c-20.73,0-16.94-29.22-58.65-29.22-20.67,0-32.17,9.56-32.17,23.22s16.42,17.94,30.54,21.23l37.59,8.37h0Z"></path><path class="cls-1" d="M1561.7,482.16c.86-12.35,11.61-21.7,23.96-20.81,11.17.77,20.04,9.65,20.81,20.81v139.91h74.63c12.85,0,23.19,6.52,23.19,18.79s-10.34,18.79-23.19,18.79h-93.09c-15.81,0-26.23-6.27-26.23-26.15,0,0-.08-151.35-.08-151.35Z"></path><path class="cls-1" d="M1728.34,482.16c.44-12.35,10.78-22,23.13-21.56,11.72.41,21.14,9.84,21.56,21.56h0v158.73c.44,12.35-9.2,22.69-21.56,23.13s-22.69-9.2-23.13-21.56h0c-.03-.53-.03-1.05,0-1.58h0s0-158.73,0-158.73Z"></path><path class="cls-1" d="M1813.91,481.91c0-18.02,12.27-22.11,24.21-22.11h13.13c13.82,0,20.48,5.53,25.37,20.48l38.86,125.95h0l38.5-125.93c4.56-14.98,11.06-20.48,25.4-20.48h12.27c12.02,0,24.3,4.06,24.3,22.11v159.42c.72,11-7.63,20.54-18.63,21.23-11,.69-20.54-7.63-21.23-18.63h0c-.06-.86-.06-1.74,0-2.6v-121.37h-.5l-41.74,130.35c-4.09,10.53-15.98,15.75-26.51,11.66-5.33-2.07-9.56-6.3-11.66-11.66l-41.71-130.35h-.53v121.37c1.66,10.92-5.86,21.09-16.78,22.75-10.92,1.66-21.09-5.86-22.75-16.78-.06-.3-.08-.61-.11-.91v-1.38c-.11-1.22-.11-2.46,0-3.68l.11-159.45h-.03Z"></path><path class="cls-1" d="M920.57,736.94c0-19.9,10.39-26.15,26.15-26.15h59.23c32.67,0,71.7,7.35,71.7,50.77.22,17.8-10.89,33.78-27.64,39.77v.61c20.65,5.53,33.86,20.12,33.86,46.99,0,41.24-33.86,58.04-72.19,58.04h-65.78c-15.73,0-26.15-6.27-26.15-26.15l.83-143.89ZM965.35,791.45h36.73c20.98,0,31.12-8.46,31.12-23.96,0-18.77-15.81-24.02-32.48-24.02h-35.38v47.98h0ZM965.35,872.71h37.56c17.44,0,37.06-3.57,37.06-26.17s-20.73-26.73-42.32-26.73h-32.14l-.17,52.9Z"></path><path class="cls-1" d="M1117.42,729.56c.44-12.35,10.78-22,23.13-21.56,11.72.41,21.14,9.84,21.56,21.56v139.91h74.63c12.77,0,23.11,6.52,23.11,18.79s-10.34,18.79-23.11,18.79h-92.87c-15.84,0-26.17-6.27-26.17-26.15l-.28-151.35h0Z"></path><path class="cls-1" d="M1374.47,706.12c64.32,0,99.28,42.84,99.28,100.39s-32.14,105.2-99.28,105.2-99.2-45.77-99.2-105.03,34.88-100.55,99.2-100.55h0ZM1374.47,875.42c40.63,0,54.59-31.67,54.59-69.1s-18.02-64.15-54.59-64.15-54.51,26.73-54.51,64.4,12.52,69.1,54.51,69.1v-.25Z"></path><path class="cls-1" d="M1596.14,706.12c51.3,0,79.3,32.17,79.3,51.3,1.16,9.95-5.97,18.99-15.92,20.15h-.06c-1.38.14-2.74.14-4.12,0-25.9,0-18.3-35.46-59.26-35.46-28.11,0-51.3,24.3-51.3,66.86,0,35.71,14.23,66.78,52.9,66.78,35.21,0,34.36-37.67,55.94-37.67,10.92,0,21.75,6.27,21.75,16.94,0,28.33-34.36,56.44-77.69,56.44-61.28,0-97.57-35.21-97.57-102.74.06-55.11,32.81-102.6,96.02-102.6Z"></path><path class="cls-1" d="M1703.3,729.56c.44-12.35,10.78-22,23.13-21.56,11.72.41,21.14,9.84,21.56,21.56h0v64.93l70.32-77.39c4.15-5.78,10.67-9.37,17.77-9.81,10.64-1.08,20.12,6.66,21.2,17.3h0v.55c-.22,5.89-2.87,11.42-7.35,15.23l-45.74,48.2,54.26,82.61c4.34,5.06,7.27,11.19,8.46,17.77.64,11.3-8.02,20.95-19.32,21.59h-.03c-1.19.11-2.38.11-3.57,0-8.43.69-16.36-3.98-19.87-11.66l-51.55-79.66-24.54,24.54v44.44c.44,12.35-9.2,22.69-21.56,23.13-12.35.44-22.69-9.2-23.13-21.56h0c-.03-.53-.03-1.05,0-1.58h0v-158.65h-.03Z"></path><path class="cls-1" d="M1992.85,793.38c40.88,9.31,51.19,33.86,51.19,56.47,0,35.38-26.64,61.86-80.65,61.86-56.66.06-82.09-28.36-82.09-49.7-.33-9.87,7.38-18.16,17.25-18.55h1.55c24.27,0,18.02,35.38,63.29,35.38,23.11,0,35.93-12.77,35.93-25.9,0-7.88-3.79-16.92-19.13-20.4l-50.77-12.85c-40.63-10.34-47.98-32.67-47.98-53.68,0-43.59,40.27-60.01,78.19-60.01,34.88,0,76.17,19.65,76.17,45.8-.41,10.25-9.07,18.27-19.32,17.86h-1.19c-20.73,0-16.92-29.22-58.57-29.22-20.73,0-32.14,9.56-32.14,23.22s16.33,17.94,30.4,21.23l37.87,8.49h0Z"></path></g></g><path class="cls-1" d="M2095.73,831.25c-22.89,0-41.46,18.57-41.46,41.46s18.57,41.46,41.46,41.46,41.46-18.57,41.46-41.46h0c0-22.89-18.57-41.46-41.46-41.46ZM2095.73,905.87c-18.33,0-33.17-14.84-33.17-33.17s14.84-33.17,33.17-33.17,33.17,14.84,33.17,33.17-14.84,33.17-33.17,33.17Z"></path><path class="cls-1" d="M2113.3,881.52c-.97-2.18-2.32-4.2-3.95-5.94-1.22-1.27-2.74-2.16-4.42-2.6,5.56-1.19,9.37-6.3,8.96-11.97.36-3.79-1.27-7.46-4.28-9.78-4.09-2.35-8.82-3.4-13.52-2.99h-18.41v46.6h11.91v-17.66h3.54c1.66-.08,3.32.39,4.7,1.33,1.55,1.27,2.74,2.87,3.51,4.73l5.72,11.61h12.8l-6.55-13.32h0ZM2100.2,867.54c-1.6,1.13-3.57,1.66-5.53,1.46h-5.06v-11.89h5.06c1.93-.19,3.9.28,5.53,1.35,1.19,1.22,1.8,2.9,1.66,4.59.14,1.66-.47,3.29-1.66,4.48Z"></path></g></g></g></g></svg>