<svg xmlns="http://www.w3.org/2000/svg" id="Layer_2" viewBox="0 0 2380.01 1370.7"><defs><style>.cls-1{fill:#656d78;stroke-width:0px;}</style></defs><g id="Layer_1-2"><path class="cls-1" d="M2206.08,40c35.78,0,69.41,13.93,94.71,39.23,25.3,25.3,39.23,58.93,39.23,94.71v1022.84c0,35.78-13.93,69.41-39.23,94.71-25.3,25.3-58.93,39.23-94.71,39.23H173.93c-35.77,0-69.41-13.93-94.71-39.23-25.3-25.3-39.23-58.93-39.23-94.71V173.93c0-35.78,13.93-69.41,39.23-94.71,25.3-25.3,58.93-39.23,94.71-39.23h2032.14M2206.08,0H173.93C77.87,0,0,77.87,0,173.93v1022.84c0,96.06,77.87,173.93,173.93,173.93h2032.14c96.06,0,173.93-77.87,173.93-173.93V173.93c0-96.06-77.87-173.93-173.93-173.93h0Z"></path><path class="cls-1" d="M722.46,852.84c8.91,4.69,17.92,9.01,26.16,15.1,25.91,19.14,34.34,56.97,24.07,86.25-9.57,27.34-31.24,40.74-57.02,49.16-20.34,6.64-41.51,8.39-62.78,8.46-53.04.15-106.08-.1-159.11.22-7.03.03-8.81-2.01-8.58-8.78.51-14.86.55-29.78,0-44.63-.27-7.17,1.58-9.31,9.06-9.26,48.61.36,97.23.23,145.84.13,7.42,0,14.83-.1,22.21-1.54,19.05-3.73,27.7-13.44,27.24-31.14-.4-15.49-11.7-26.54-29.66-28.65-5.19-.61-10.47-.73-15.71-.75-50-.05-100-.2-149.99.17-7.55.05-9.27-2.21-9.01-9.29.55-14.32.45-28.67.03-42.98-.17-5.97,1.94-7.32,7.55-7.3,42.54.2,85.07.15,127.61.07,9.64-.02,19.31-.36,28.75-2.46,18.81-4.16,26.51-13.64,25.38-30.64-.96-14.45-12.62-25.07-29.99-26-15.15-.81-30.36-.63-45.56-.66-35.09-.08-70.16-.15-105.25.08-6.11.03-8.83-1.01-8.56-8.03.58-15.96.36-31.97.1-47.94-.08-4.94,1.23-6.67,6.45-6.65,54.41.2,108.85-.43,163.24.45,25.42.4,50.57,5.09,72.6,18.98,45.39,28.62,46.53,89.92,2.67,121.09-2.6,1.86-6.12,2.74-7.8,6.52l.03.03Z"></path><path class="cls-1" d="M881.58,801.28c0-29.21.18-58.43-.13-87.64-.07-6.17,1.66-7.95,7.88-7.85,23.47.36,46.97.41,70.44-.03,6.87-.13,8.1,2.29,8.08,8.48-.2,55.39-.46,110.8.13,166.18.22,19.44,4.13,38.27,19.34,52.72,6.62,6.29,14.32,10.29,23.14,11.71,25.25,4.06,50.1.32,63.52-23.47,6.72-11.89,9.75-25.03,9.8-38.67.15-55.68.28-111.35-.07-167.01-.05-8,1.97-10.19,10-9.99,22.91.56,45.85.33,68.78.08,5.28-.07,7.22,1.29,7.2,6.87-.18,52.64.25,105.28-.27,157.92-.23,23.89-2.29,47.76-11.8,70.22-16.69,39.5-46.9,63.27-88.19,72.35-32.65,7.18-65.7,6.95-98.03-2.74-47.58-14.25-76.21-46.1-86.27-94.56-2.62-12.67-3.77-25.52-3.67-38.5.2-25.35.07-50.72.07-76.06h.02Z"></path><path class="cls-1" d="M1763.41,699.56c33.26,1.26,65.94,6.62,96.97,20.07.25.12.5.23.75.35,11.86,5.36,12.01,5.42,7.1,17.55-6.3,15.51-13.17,30.81-19.13,46.43-1.99,5.24-3.52,6.25-8.51,3.48-18.46-10.25-38.36-16.51-59.26-19.26-16.21-2.14-32.45-2.29-48.38,2.19-18.46,5.19-27.21,24.49-16.16,36.46,5.89,6.39,14.37,9.14,22.63,11.28,22.36,5.81,44.89,11.03,67.24,16.86,20.69,5.39,40.06,13.34,56.12,28.29,22.08,20.57,26.79,46.04,21.02,73.97-7.47,36.12-32.13,57.2-65.21,69.59-32.75,12.26-66.72,12.46-100.97,8.76-29.25-3.15-57.35-10.24-83.66-23.66-12.87-6.57-12.92-7.18-6.77-20.49,6.69-14.47,13.06-29.08,19.39-43.71,2.06-4.74,3.47-6.54,9.22-3.12,32.53,19.33,68,27.87,105.81,25.98,9.84-.5,19.74-1.89,28.62-7.03,14.03-8.15,14.8-25.6,1.09-34.29-14.91-9.46-32.23-12.28-49.01-16.27-21.93-5.23-44.26-9.27-64.83-18.68-28.5-13.04-47.53-33.2-50.22-66.67-3.52-43.8,21.1-76.63,57.73-93.48,24.87-11.45,51.38-13.55,78.44-14.6h-.03Z"></path><path class="cls-1" d="M1247.48,705.93c28.52,0,56.89.07,85.26-.08,3.93-.02,4.94,2.41,6.54,5.04,21.82,36.46,43.73,72.86,65.55,109.33,1.28,2.14,2.29,5.26,4.61,5.42,2.62.18,3.2-3.24,4.43-5.29,21.83-36.33,43.71-72.65,65.38-109.08,2.44-4.1,5.16-5.51,9.85-5.46,22.1.23,44.2.03,66.29.15,2.87,0,6.9-1.59,8.38,1.24,1.39,2.65-1.86,5.44-3.33,7.91-31.42,52.71-62.16,105.84-94.86,157.75-12.76,20.26-18.96,40.35-17.32,64.14,1.53,22.21.12,44.63.45,66.94.08,6.02-1.36,8.11-7.75,8.01-23.76-.36-47.51-.32-71.27,0-5.86.08-7.47-1.71-7.43-7.47.25-30.86-.41-61.75.38-92.59.28-10.9-4.58-18.91-9.62-27.31-33.25-55.49-66.61-110.92-99.85-166.41-2.19-3.67-5.51-6.88-5.69-12.26h.02Z"></path><path class="cls-1" d="M1146.74,437.13c0,28.39.7,56.8-.2,85.17-.88,28.27-6.87,55.54-23.61,79.17-19.71,27.8-46.92,44.26-80.38,50.2-37.23,6.6-74.02,5.97-109.39-9.21-35.02-15.03-57.32-41.37-67.77-77.79-4.66-16.22-6.4-32.95-6.49-49.7-.28-54.03.08-108.05-.27-162.08-.05-7.85,2.41-9.52,9.74-9.37,22.65.45,45.32.46,67.97-.02,7.18-.15,8.54,2.19,8.51,8.84-.27,50.72-.45,101.45.02,152.16.15,16.41,1.05,32.88,7.63,48.56,7.96,18.96,22.28,28.48,42.24,30.48,13.06,1.31,25.98.81,37.82-5.59,18.85-10.19,25.27-27.87,27.99-47.6,1.63-11.76,1.68-23.59,1.66-35.44-.07-47.96.07-95.92-.15-143.88-.02-5.64,1.28-7.55,7.27-7.47,23.21.35,46.42.43,69.63-.05,6.98-.15,8,2.42,7.95,8.48-.28,28.39-.12,56.79-.12,85.17h-.05v-.03Z"></path><path class="cls-1" d="M1547.6,649.62h-29.93c-18.23,0-36.46-.13-54.71.08-4.61.05-7.5-1.23-10.17-5.21-15.78-23.54-31.99-46.82-47.78-70.37-2.92-4.36-5.96-6.39-11.38-6.15-10.48.45-21.02.55-31.49,0-7.3-.38-10.02,1.43-9.8,9.39.6,21.77.05,43.55.3,65.31.07,5.29-1.33,7.12-6.88,7.05-24.04-.28-48.08-.27-72.12,0-5.34.05-7.13-1.33-7.12-6.87.2-44.66.25-89.3,0-133.96-.03-6.59,2.57-7.68,8.34-7.65,41.99.2,83.99.13,125.98.07,7.15,0,14.28-.3,21.37-1.89,27.52-6.17,36.98-29.2,32.02-53.52-4.36-21.43-21.19-33.89-45.41-34.16-44.2-.46-88.41-.48-132.62-.1-8.28.07-10.07-2.37-9.79-10.15.63-17.07.36-34.17.13-51.26-.07-4.93,1.31-6.7,6.5-6.67,49.44.36,98.92-.51,148.33,1.06,33.94,1.08,65.46,11.31,90.65,35.83,23.26,22.63,31.99,50.86,30.34,82.43-2.04,39.2-20.02,68.96-55.14,87.63-4.88,2.59-3.62,4.89-1.23,8.31,20.26,29.15,40.41,58.38,60.57,87.61.41.61.48,1.46,1,3.17l.03.02Z"></path><path class="cls-1" d="M570.66,343.65c22.98.85,50.9-1.66,78.7,1.58,37.58,4.36,70.54,17.6,93.63,49.35,13.45,18.51,18.36,39.77,18.4,62.06.03,22.88-5.19,44.56-19.11,63.41-18.78,25.43-44.69,39.19-75.17,45.24-27.24,5.41-54.88,4.3-82.43,4.41-13.17.05-13.17,0-13.19,12.97,0,19.84-.18,39.68.1,59.51.08,5.44-.93,7.68-7.1,7.58-24.3-.36-48.61-.3-72.91,0-5.29.07-6.37-1.66-6.35-6.59.17-44.91.22-89.82-.05-134.73-.03-6.07,2.06-7.2,7.6-7.17,42.8.2,85.62.12,128.42.1,11.65,0,23.18-1.06,33.46-7.1,15.31-9.01,22.69-27.11,19.28-46.42-3.15-17.83-16.42-31.11-34.24-34.59-7.9-1.54-15.81-1.81-23.79-1.81-40.88.03-81.75-.15-122.63.17-6.62.05-8.26-1.82-8.11-8.21.45-17.35.43-34.72,0-52.08-.12-6.11,1.39-7.95,7.71-7.85,24.3.38,48.61.15,77.79.15Z"></path><path class="cls-1" d="M1773.58,409.86c-37.82,0-75.63-.15-113.44.15-6.2.05-7.98-1.61-7.83-7.81.43-17.34.32-34.69.03-52.04-.08-5.03,1.39-6.59,6.52-6.59,76.46.15,152.92.15,229.39,0,5.08,0,6.65,1.43,6.57,6.52-.28,17.34-.38,34.71.02,52.04.15,6.17-1.58,7.9-7.81,7.85-37.81-.28-75.63-.15-113.44-.15v.03Z"></path><path class="cls-1" d="M1774.38,583.34c37.54,0,75.09.15,112.63-.13,6.25-.05,7.98,1.78,7.83,7.91-.41,17.34-.32,34.71-.07,52.04.07,5.03-1.44,6.55-6.55,6.55-76.46-.15-152.92-.15-229.4,0-5.19,0-6.54-1.63-6.47-6.6.27-17.35.36-34.71-.05-52.04-.15-6.12,1.51-7.93,7.8-7.88,38.09.3,76.2.15,114.29.15h0Z"></path><path class="cls-1" d="M1773.34,526.8c-37.58,0-75.17-.15-112.74.15-6.54.05-8.49-1.78-8.31-8.31.45-16.52.33-33.08.05-49.62-.08-5.13,1.61-6.54,6.6-6.52,76.26.13,152.53.15,228.79,0,5.36,0,7.17,1.49,7.07,6.95-.3,16.54-.38,33.08.07,49.62.17,6.29-1.82,7.91-7.96,7.86-37.86-.27-75.72-.13-113.57-.13h.02Z"></path></g></svg>